<?xml version="1.0" encoding="utf-8"?>
<!-- Generator: Adobe Illustrator 24.0.2, SVG Export Plug-In . SVG Version: 6.00 Build 0)  -->
<svg version="1.1" id="Layer_1" xmlns="http://www.w3.org/2000/svg" xmlns:xlink="http://www.w3.org/1999/xlink" x="0px" y="0px"
	 viewBox="0 0 612 792" style="enable-background:new 0 0 612 792;" xml:space="preserve">
<g>
	<path d="M306.78,322.72c2.05,2.31,4.14,4.59,6.15,6.94c1.32,1.55,2.54,3.19,3.77,4.82c0.91,1.21,1.74,2.48,2.63,3.71
		c1.19,1.64,2.67,2.91,4.66,3.51c0.64,0.19,1.17,0.52,1.44,1.25c-0.43,4.22-0.86,8.49-1.3,12.83c0.4,0.18,0.75,0.38,1.12,0.51
		c1.59,0.56,3.19,1.13,4.8,1.63c2.1,0.66,3.98,1.69,5.51,3.27c2.11,2.18,4.67,3.64,7.34,4.99c1.26,0.64,2.54,0.73,4,0.5
		c0.03-0.31,0.12-0.59,0.07-0.85c-0.74-3.89-1.49-7.78-2.22-11.58c-0.25-0.18-0.37-0.33-0.53-0.38c-1.66-0.48-3.03-1.47-4.41-2.45
		c-2.19-1.56-4.25-3.27-6.19-5.13c-0.29-0.28-0.56-0.58-1.02-1.06c0.54,0.07,0.88,0.04,1.15,0.16c0.42,0.19,0.84,0.42,1.19,0.72
		c1.57,1.34,3.45,1.91,5.43,2.21c0.86,0.13,1.73,0.24,2.59,0.39c1.67,0.29,3.27,0.8,4.81,1.8c0.38-0.95,0.39-1.82,0.56-2.65
		c0.16-0.8,0.28-1.61,0.36-2.42c0.07-0.63,0.08-1.28,0.08-1.92c0-0.76-0.06-1.52-0.05-2.27c0.01-0.7,0.09-1.39,0.58-1.93
		c0.41-0.05,0.54,0.24,0.67,0.48c0.26,0.52,0.5,1.05,0.68,1.45c0.11,1.75,0.22,3.38,0.32,5.01c0.1,1.56,0.2,3.12,0.3,4.65
		c2.35,0.68,10.27,0.72,13.47,0.09c0-0.62-0.4-1.06-0.7-1.54c-0.37-0.59-0.8-1.15-1.14-1.76c-0.5-0.87-0.5-1.06-0.35-2.32
		c0.09-0.06,0.2-0.18,0.28-0.17c1.06,0.16,2.05-0.07,3.07-0.35c2.64-0.71,5.31-1.34,7.97-1.97c0.43-0.1,0.88-0.08,1.71-0.15
		c-0.56,0.46-0.78,0.74-1.07,0.86c-1.08,0.43-2.17,0.85-3.28,1.17c-1.73,0.51-3.49,0.94-5.23,1.41c-0.22,0.06-0.43,0.15-0.76,0.26
		c0.17,0.31,0.28,0.57,0.45,0.78c0.82,0.98,1.66,1.96,2.5,2.92c0.59,0.67,1.05,1.39,1.19,2.29c-0.13,0.62-0.51,1.03-1.24,1.43
		c-2.46,0.23-5.13,0.42-7.79,0.75c-2.57,0.33-5.19,0.38-7.86,0.91c0.19,0.79,0.31,1.41,0.5,2.01c1.28,4.03,3.05,7.82,5.62,11.2
		c0.38,0.5,0.88,0.92,1.33,1.37c0.17,0.16,0.37,0.28,0.55,0.43c1.48,1.18,1.65,1.38,2.51,3.04c0.11,0.02,0.23,0.09,0.33,0.06
		c1.66-0.53,3.33-1.04,4.98-1.64c0.87-0.31,1.72-0.71,2.51-1.19c4.51-2.74,8.51-6.13,12.11-9.98c1.55-1.66,3.01-3.41,4.47-5.14
		c0.41-0.48,0.75-1.05,1.03-1.62c0.73-1.44,0.76-2.91,0.1-4.39c-0.09-0.21-0.2-0.42-0.32-0.62c-1.73-2.9-3.43-5.83-5.2-8.7
		c-0.95-1.54-2.21-2.85-3.58-4.04c-3.95-3.45-7.9-6.91-11.83-10.38c-1.4-1.24-2.79-2.48-4.1-3.81c-3.54-3.55-7.15-7.03-10.84-10.43
		c-3.69-3.39-7.25-6.93-10.86-10.41c-3.82-3.68-7.63-7.37-11.46-11.05c-4.67-4.48-9.31-9-14.06-13.4
		c-6.67-6.18-13.41-12.29-20.15-18.4c-6.01-5.44-12.1-10.78-18.41-15.88c-7.48-6.05-14.9-12.17-22.37-18.23
		c-1.81-1.47-3.71-2.83-5.57-4.23c-4.7-3.54-9.41-7.08-14.42-10.19c-1.28-0.8-2.63-1.5-3.93-2.28c-1.25-0.75-2.49-1.52-3.72-2.3
		c-9.59-6.1-19.48-11.7-29.48-17.09c-5.23-2.82-10.48-5.6-15.74-8.36c-5.26-2.76-10.72-5.13-16.16-7.51
		c-1.38-0.61-2.72-1.33-4.01-2.11c-1.94-1.17-3.42-2.81-4.5-4.79c-2.3-4.2-4.26-8.55-5.86-13.06c-0.56-1.58-0.65-3.14-0.28-4.8
		c0.98-4.44,1.92-8.88,3.19-13.25c1.03-3.53,2.42-6.93,3.97-10.26c0.91-1.95,1.89-3.88,2.73-5.86c0.56-1.32,1.49-2.2,2.69-2.87
		c0.3-0.17,0.66-0.26,0.94-0.46c2.31-1.65,4.91-1.68,7.55-1.28c4.53,0.69,8.82,2.16,12.89,4.25c5.97,3.07,11.68,6.58,17.09,10.55
		c11.19,8.23,21.69,17.29,31.67,26.96c6.61,6.41,13.16,12.9,19.76,19.33c3.22,3.13,6.59,6.09,10.1,8.9
		c7.09,5.69,14.1,11.5,21.14,17.25c5.06,4.13,10.11,8.26,15.17,12.39c0.32,0.26,0.64,0.5,0.97,0.75c3.24,2.49,6.35,5.1,9.2,8.06
		c2.42,2.52,5.07,4.82,7.69,7.13c5.11,4.52,10.28,8.98,15.42,13.45c6.55,5.7,13.01,11.52,19.68,17.09
		c3.58,2.99,7.01,6.15,10.54,9.21c3.87,3.36,7.76,6.71,11.67,10.04c2.93,2.5,5.89,4.95,8.84,7.43c5.54,4.65,11.03,9.35,16.63,13.93
		c5.38,4.4,11.17,8.22,17.19,11.7c3.82,2.21,7.91,3.66,12.26,4.43c3.52,0.62,7.05,0.94,10.61,0.45c0.11-0.02,0.23-0.05,0.45-0.11
		c1.56-1.25,2.95-2.83,4.38-4.36c2.75-2.96,5.15-6.18,6.87-9.85c0.67-1.42,1.25-2.89,1.71-4.39c1.48-4.79,2.86-9.61,3.84-14.52
		c0.7-3.54,1.3-7.1,1.57-10.71c0.17-2.21,0.4-4.41,0.65-6.6c0.07-0.63,0.2-1.27,0.41-1.87c0.7-1.98,2.37-2.86,4.43-2.39
		c0.34,0.08,0.67,0.18,1.02,0.28c1.12,1.19,1.66,2.67,2.07,4.19c0.31,1.18,0.51,2.39,0.77,3.59c0.14,0.68,0.29,1.35,0.49,2.25
		c0.22-0.39,0.37-0.57,0.41-0.76c0.07-0.4,0.1-0.81,0.12-1.21c0.16-3.03,0.29-6.05,0.47-9.08c0.06-0.98,0.22-1.96,0.33-2.95
		c1.44-0.6,2.85-0.85,4.32-0.72c1.28,0.12,2.37,0.7,3.15,1.69c0.68,0.86,1.22,1.84,1.8,2.77c0.15,0.24,0.26,0.52,0.35,0.8
		c1.39,4.38,3.11,8.66,4.03,13.19c0.84,4.12,1.27,8.29,1.47,12.48c0.27,5.61-0.06,11.18-0.78,16.74
		c-1.37,10.6-4.53,20.69-8.74,30.48c-2.31,5.37-5.2,10.43-8.6,15.18c-2.82,3.93-5.64,7.86-8.54,11.73
		c-3.02,4.02-6.48,7.64-10.14,11.08c-0.54,0.51-1.07,1.03-1.68,1.62c0.3,0.1,0.45,0.18,0.61,0.19c2.69,0.13,5.37,0.01,7.97-0.76
		c4.02-1.2,8.02-2.44,12.03-3.67c0.22-0.07,0.42-0.18,0.73-0.31c0.41-2.42,0.38-4.92,0.84-7.42c0.66,0.12,0.95,0.59,1.35,0.89
		c0.42,0.32,0.82,0.65,1.23,0.97c1.2,0.27,2.45,0.06,3.74,0.41c-0.43,0.88-1.38,0.97-1.88,1.67c0.77,1.13,1.74,2.11,2.71,3.21
		c2.14,0.37,4.31,0.75,6.49,1.12c5.4,0.9,10.8,1.8,16.21,2.69c2.3,0.38,4.6,0.76,6.9,1.11c1.22,0.18,2.44,0.17,3.65-0.11
		c4.48-1.03,8.97-2.06,13.45-3.09c2.35-0.54,4.71-0.82,7.1-0.23c0.34,0.08,0.67,0.19,1,0.3c0.15,0.05,0.28,0.16,0.49,0.28
		c-1.14,0-2.18,0.01-3.23,0c-2.25-0.02-4.36,0.45-6.43,1.4c-2.17,0.99-4.44,1.74-6.67,2.59c-0.65,0.25-1.29,0.5-2.06,0.79
		c0.24,0.37,0.38,0.68,0.6,0.92c0.86,0.92,1.94,1.52,3.16,1.75c1.03,0.2,2.08,0.28,3.12,0.35c0.75,0.05,1.51,0.01,2.4,0.01
		c-0.95,0.7-1.53,0.93-2.58,1.06c-2,0.25-3.96,0.05-5.86-0.6c-1.44-0.48-2.86-1-4.3-1.46c-3.84-1.24-7.79-1.97-11.78-2.5
		c-4.1-0.55-8.2-1.1-12.3-1.64c-2.72-0.35-5.43-0.7-8.15-1.01c-1.54-0.17-3.03,0.15-4.4,0.86c-3.97,2.08-7.99,4.09-11.88,6.33
		c-2.83,1.63-5.8,2.41-9.02,2.23c-3.2-0.17-6.4-0.44-9.6-0.66c-1.63-0.11-3.26-0.19-4.89-0.28c-1.34,0.88-2.64,1.76-3.97,2.59
		c-1.38,0.87-2.78,1.71-4.19,2.53c-1.36,0.79-2.75,1.53-4.13,2.28c-1.36,0.74-2.74,1.43-3.95,2.53c0.56,0.02,1.13,0.05,1.69,0.05
		c3.91-0.01,7.81,0.24,11.7,0.57c3.19,0.27,6.39,0.52,9.58,0.82c2.73,0.26,5.45,0.59,8.17,0.88c2.61,0.28,5.22,0.55,7.82,0.83
		c2.78,0.3,5.56,0.61,8.34,0.92c2.32,0.26,4.63,0.53,6.95,0.81c0.22,0.03,0.43,0.09,0.91,0.19c-1.82,0.51-3.42,0.82-5.05,0.8
		c-3.62-0.04-7.22,0.33-10.82,0.63c-3.55,0.29-7.1,0.36-10.64-0.27c-0.74-0.13-1.5-0.2-2.25-0.23c-6.18-0.22-12.35-0.42-18.53-0.62
		c-3.67-0.12-7.35-0.11-11.01,0.25c-2.96,0.29-5.88,0.82-8.8,1.44c-1.6,1.16-3.21,2.32-4.89,3.53c0.24,0.21,0.37,0.39,0.55,0.49
		c6.84,3.76,13.58,7.72,20.57,11.2c6.91,3.44,14.14,6.03,21.6,7.98c2.1,0.55,4.24,0.77,6.4,0.83c1.81,0.05,3.62,0.05,5.42,0.03
		c5.2-0.05,10.37,0.35,15.52,0.98c3.3,0.41,6.59,0.81,10.11,1.25c-0.82,0.41-1.5,0.46-2.17,0.51c-5,0.37-10,0.72-15.02,0.84
		c-5.42,0.13-10.84,0.37-16.26,0.57c-0.46,0.02-0.93,0.07-1.38,0.18c-1.85,0.45-3.71,0.47-5.53-0.06c-2.57-0.74-5.11-1.59-7.67-2.4
		c-0.66-0.21-1.32-0.43-2.09-0.68c-0.09,0.34-0.22,0.59-0.22,0.85c0.04,2.57,0.25,5.12,0.59,7.67c0.03,0.22,0.14,0.44,0.22,0.7
		c1.46,0.24,2.91,0.09,4.36,0.11c1.52,0.03,3.03,0.01,4.55,0.01c1.46,0,2.92,0,4.37,0s2.92,0,4.37,0c1.46,0,2.92,0,4.37,0
		c1.52,0,3.03,0,4.55,0c1.45,0,2.9,0.01,4.44,0.02c0.29,1.99,0.1,3.9,0.14,5.8c0.03,1.86,0.01,3.72,0.01,5.51
		c-0.57,0.56-1.19,0.37-1.74,0.37c-5.72,0.01-11.43,0.01-17.15,0.01c-0.63,0-1.27-0.09-1.88,0.15c-0.07,0.2-0.17,0.37-0.17,0.53
		c-0.01,4.37-0.01,8.74-0.01,13.03c0.49,0.54,1.05,0.38,1.55,0.38c4.67,0.01,9.33,0.01,14,0.01c0.57,0,1.14,0.05,1.7,0.08
		c0.08,0.26,0.16,0.43,0.16,0.59c0.01,3.44,0.01,6.88,0,10.32c0,0.16-0.1,0.32-0.16,0.53c-0.62,0.24-1.26,0.14-1.89,0.14
		c-4.49,0.01-8.98,0-13.47,0.01c-0.57,0-1.14,0.05-1.63,0.08c-0.12,0.22-0.23,0.32-0.23,0.42c-0.02,4.26-0.04,8.51-0.04,12.77
		c0,0.22,0.07,0.45,0.1,0.65c0.63,0.41,1.29,0.25,1.91,0.25c5.6,0.01,11.2,0.01,16.8,0.01c0.63,0,1.27,0.02,1.94,0.03
		c0.38,1.35,0.15,2.63,0.19,3.89c0.04,1.22,0.01,2.45,0.01,3.67c0,1.27-0.02,2.54-0.03,3.69c-0.16,0.16-0.19,0.21-0.24,0.24
		c-0.05,0.03-0.11,0.05-0.16,0.05c-10.79,0.01-21.58,0.02-32.36,0.03c-0.17,0-0.33-0.06-0.59-0.12c-0.04-0.38-0.11-0.77-0.12-1.16
		c-0.01-2.86-0.01-5.72-0.01-8.57c0-14.81,0-29.63,0-44.44c0-0.7,0-1.4,0-2.14c-1.23-2.14-2.53-4.26-3.85-6.36
		c-0.52,0.2-0.37,0.54-0.37,0.78c-0.01,2.86-0.01,5.72-0.01,8.57c0,0.57-0.04,1.14-0.07,1.81c-1.44,0.16-2.77,0.06-4.1,0.08
		c-1.28,0.02-2.57-0.02-3.85,0.01c-1.33,0.03-2.67-0.15-4.04,0.13c-0.06,0.24-0.15,0.46-0.16,0.68c-0.03,0.58-0.02,1.17-0.02,1.75
		c0,15.57,0,31.14,0,46.71c0,0.69-0.02,1.38-0.03,2.16c-1.12,0.21-2.16,0.09-3.2,0.11c-0.99,0.02-1.98,0-2.97,0
		c-1.05,0-2.1,0.02-3.15-0.01c-0.98-0.03-1.97,0.13-3.04-0.16c-0.02-0.72-0.04-1.41-0.04-2.1c0-15.69,0-31.38-0.01-47.06
		c0-0.69,0.11-1.39-0.17-2.09c-1.36-0.28-2.7-0.1-4.03-0.13c-1.28-0.03-2.57,0.01-3.85-0.01c-1.33-0.03-2.67,0.11-4.06-0.1
		c-0.07-0.23-0.19-0.45-0.19-0.66c-0.01-3.38-0.01-6.76-0.01-10.15c0-0.22,0.08-0.44,0.14-0.72c1.78-0.18,3.52-0.06,5.26-0.08
		c1.75-0.02,3.5,0,5.25,0c1.75,0,3.5,0,5.25,0c1.75,0,3.5,0,5.25,0s3.5,0,5.25,0c1.75,0,3.5,0.02,5.25-0.01
		c1.72-0.03,3.45,0.12,5.32-0.12c-0.29-0.52-0.49-0.93-0.73-1.32c-1.95-3.18-3.92-6.35-5.85-9.54c-0.78-1.3-1.8-2.28-3.19-2.88
		c-0.96-0.42-1.91-0.87-2.9-1.22c-5.25-1.91-10.52-3.8-15.78-5.69c-0.32-0.12-0.66-0.2-1.06-0.32c-0.35,0.42-0.68,0.82-1,1.22
		c-2.12,2.72-4.64,4.89-7.91,6.14c-2.69,1.03-3.26,1.02-5.8-0.25c-0.36-0.18-0.72-0.38-1.08-0.58c-1.57-0.89-3.1-1.82-4.74-2.6
		c-2.32-1.11-4.37-2.67-6.46-4.16c-1.66-1.19-3.27-2.44-4.97-3.57c-1.36-0.9-2.81-1.64-4.24-2.43c-0.51-0.28-1.05-0.53-1.74-0.15
		c0.05,0.25,0.08,0.53,0.17,0.78c0.87,2.47,1.71,4.96,2.65,7.4c0.81,2.09,2.08,3.88,3.74,5.42c1.24,1.14,2.34,2.43,3.47,3.7
		c2.55,2.88,5.08,5.78,7.62,8.67c0.38,0.44,0.76,0.88,1.22,1.42c1.4,0.18,2.91,0.06,4.42,0.08c1.51,0.02,3.02,0,4.58,0
		c0.08,0.37,0.19,0.64,0.19,0.92c0.01,3.32,0.01,6.65,0,9.97c0,0.17-0.06,0.34-0.09,0.51c-0.48,0.5-1.1,0.31-1.66,0.31
		c-5.66,0.01-11.31,0.01-16.97,0.01c-0.64,0-1.27,0-1.97,0c-0.09,0.35-0.22,0.62-0.23,0.89c-0.01,4.14-0.01,8.28,0,12.42
		c0,0.17,0.06,0.34,0.09,0.5c0.45,0.44,1,0.28,1.5,0.28c4.61,0.01,9.21,0.01,13.82,0.01c0.57,0,1.14,0.04,1.8,0.07
		c0.25,0.99,0.12,1.92,0.14,2.83c0.02,0.99,0,1.98,0,2.97c0,0.93,0.01,1.87,0,2.8c-0.01,0.92,0.08,1.85-0.1,2.78
		c-0.67,0.32-1.32,0.2-1.94,0.2c-4.49,0.01-8.98,0-13.47,0.01c-0.57,0-1.17-0.15-1.74,0.25c-0.03,0.2-0.11,0.42-0.11,0.65
		c0.01,4.26,0.02,8.51,0.04,12.77c0,0.1,0.1,0.2,0.17,0.33c0.58,0.31,1.23,0.16,1.86,0.16c5.6,0.01,11.2,0,16.8,0.02
		c0.63,0,1.28-0.15,1.93,0.21c0.04,0.21,0.12,0.43,0.12,0.65c0,3.38,0,6.76-0.01,10.15c0,0.16-0.1,0.32-0.15,0.47
		c-1.37,0.18-31.22,0.2-33.16,0.02c-0.04-0.3-0.11-0.62-0.14-0.95c-0.02-0.29-0.01-0.58-0.01-0.87c0-19.77,0-39.54,0-59.31
		c0-0.63-0.07-1.26,0.15-1.98c1.26-0.09,2.47-0.04,3.68-0.05c1.28-0.01,2.57,0,3.85,0c1.22,0,2.45,0,3.67,0s2.45,0,3.67,0
		c1.28,0,2.57,0,3.85,0c1.21,0,2.43,0,3.8,0c-0.21-0.29-0.29-0.46-0.41-0.54c-2.69-1.79-4.97-4.05-7.33-6.22
		c-1.85-1.7-3.7-3.39-5.82-4.75c-1.37-0.88-2.8-1.67-4.21-2.49c-0.23-0.14-0.51-0.21-0.92-0.37c0.22,1.88,0.76,3.54,0.98,5.25
		c0.23,1.71,0.77,3.4,0.27,5.25c-0.85-0.54-1.18-1.3-1.42-2.07c-0.58-1.83-1.1-3.68-1.63-5.53c-0.23-0.78-0.41-1.58-0.62-2.37
		c-0.21-0.79-0.45-1.55-1-2.21c-0.29-0.35-0.44-0.82-0.62-1.24c-1.04-2.53-2.01-5.09-2.76-7.74c-0.27-0.94-0.49-1.91-1.1-2.86
		c-0.26,0.19-0.49,0.33-0.69,0.51c-1.38,1.26-2.77,2.51-4.13,3.78c-2.11,1.98-3.74,4.29-4.95,6.93c-0.8,1.75-1.63,3.49-2.57,5.16
		c-2.33,4.15-5.79,6.95-10.37,8.32c-1.73,0.52-3.49,0.94-5.23,1.41c-1.17,0.32-2.35,0.61-3.26,1.45c0.08,0.41,0.36,0.29,0.55,0.32
		c0.23,0.03,0.47,0.01,0.7,0.01c5.02,0,10.03-0.02,15.05,0.02c0.98,0.01,2,0.07,2.94,0.33c3.4,0.94,5.72,3.04,6.61,6.54
		c0.17,0.67,0.18,1.39,0.18,2.08c0.01,5.25-0.02,10.5,0.02,15.75c0.02,3.83-1.25,7.07-4.16,9.62c-0.17,0.14-0.29,0.33-0.5,0.57
		c0.28,0.28,0.51,0.54,0.76,0.77c2.64,2.43,3.87,5.47,3.88,9.04c0.01,3.03,0.01,6.07,0.01,9.1c0,2.68,0,5.37,0,8.05
		c0,0.4-0.03,0.8-0.05,1.1c-0.12,0.13-0.15,0.18-0.2,0.22c-0.04,0.03-0.1,0.07-0.15,0.07c-0.47,0.02-0.93,0.05-1.4,0.05
		c-3.5,0-6.99,0-10.42,0c-0.49-0.53-0.33-1.08-0.33-1.58c-0.01-5.13-0.01-10.26-0.01-15.4c0-0.47,0.01-0.93-0.01-1.4
		c-0.08-2.15-1.5-3.74-3.61-4.07c-0.29-0.04-0.58-0.08-0.87-0.08c-2.22,0-4.43,0-6.65,0.01c-0.17,0-0.34,0.06-0.53,0.1
		c-0.46,0.56-0.26,1.23-0.26,1.84c-0.02,6.12-0.01,12.25-0.01,18.37c0,0.64,0,1.28,0,2c-0.38,0.07-0.7,0.19-1.03,0.19
		c-3.5,0.01-7,0.01-10.5,0c-0.28,0-0.56-0.05-0.93-0.09c-0.16-1.15-0.06-2.26-0.08-3.35c-0.02-1.11,0-2.22,0-3.32
		c0-1.11,0-2.22,0-3.32s0-2.22,0-3.32s0-2.22,0-3.32c0-1.11,0-2.22,0-3.32c0-1.11,0-2.22,0-3.32c0-1.05,0-2.1,0-3.15
		c0-1.11,0-2.22,0-3.32s0-2.22,0-3.32s0-2.22,0-3.32s0-2.22,0-3.32c0-1.11,0-2.22,0-3.32c0-1.11,0.01-2.22,0-3.32
		c-0.02-1.09,0.08-2.19-0.07-3.3c-0.21,0.06-0.35,0.05-0.42,0.12c-2.02,1.94-4.04,3.88-6.04,5.82c-0.46,0.44-0.99,0.85-0.96,1.65
		c-1.63,0.44-2.25,1.99-3.39,3.3c-0.13-1.33,0.97-1.88,1.17-2.8c-0.02-0.07-0.02-0.13-0.05-0.17c-0.04-0.04-0.11-0.06-0.16-0.06
		c-3.26,0-6.52,0-9.86,0c-0.09-0.43-0.21-0.75-0.21-1.08c-0.02-2.27,0-4.55-0.01-6.82c0-0.51-0.06-1.02-0.09-1.58
		c-0.3-0.07-0.52-0.15-0.74-0.15c-3.61-0.01-7.22-0.01-10.9-0.01c-0.08,0.42-0.17,0.75-0.2,1.08c-0.03,0.35-0.01,0.7-0.01,1.05
		c0,11.9,0,23.79,0,35.69c0,0.63-0.09,1.27,0.14,1.94c0.24,0.06,0.46,0.15,0.68,0.15c3.5,0,7,0,10.5-0.02
		c0.16,0,0.32-0.12,0.57-0.22c0.14-3.05-0.04-6.13,0.11-9.26c0.25-0.07,0.47-0.17,0.68-0.17c3.73-0.01,7.46,0,11.2,0
		c0.11,0,0.23,0.05,0.34,0.08c0.4,0.37,0.26,0.87,0.26,1.32c0.01,3.67,0.02,7.35,0,11.02c-0.03,4.13-2.68,7.54-6.67,8.56
		c-0.84,0.21-1.72,0.33-2.59,0.34c-6.18,0.03-12.36,0.02-18.55,0.01c-2.99,0-5.42-1.19-7.34-3.45c-1.17-1.38-1.78-2.99-1.86-4.8
		c-0.02-0.41-0.01-0.82-0.01-1.22c0-14.75,0-29.51,0.01-44.26c0-0.81-0.02-1.65,0.15-2.44c0.8-3.59,3.15-5.75,6.6-6.75
		c0.88-0.26,1.84-0.33,2.76-0.34c6.01-0.03,12.01-0.01,18.02-0.02c2.76,0,5.13,0.91,7.08,2.89c1.59,1.62,2.39,3.56,2.4,5.83
		c0.01,2.74,0,5.48,0.01,8.22c0,0.58,0.03,1.15,0.04,1.8c0.26-0.1,0.45-0.12,0.56-0.23c2.45-2.42,4.65-5.06,6.86-7.88
		c0-3.41,0-6.9,0-10.46c1.99-0.39,3.92,0.01,5.81-0.26c2.03-3.69,5.33-5.59,9.25-6.62c1.75-0.46,3.48-0.95,5.13-1.72
		c1.12-0.52,2.13-1.18,2.91-2.17c0.43-0.55,0.96-1.01,1.45-1.52c1.28-1.34,2.05-2.96,2.59-4.71c0.19-0.61,0.31-1.25,0.03-1.97
		c-3.45-4.06-5.86-8.86-8.31-13.63c-0.26-0.51-0.55-1-0.86-1.58c-0.91,0.26-1.75,0.48-2.57,0.75c-3.32,1.1-6.63,2.2-9.94,3.34
		c-1.89,0.65-3.61,1.57-5.06,3.01c-1.86,1.85-3.64,3.77-5.34,5.82c-1.57,6.73-3.14,13.47-4.71,20.23c-0.32,0.05-0.54,0.09-0.81,0.13
		c-0.68-0.92-1.12-1.93-1.5-2.96c-0.63-1.69-1.21-3.4-1.82-5.1c-0.51-1.42-1.04-2.84-1.84-4.19c-1.29-0.13-2.55-0.1-3.81,0.18
		c-7.22,1.62-14.44,3.23-21.66,4.84c-4.72,1.05-9.43,2.12-14.16,3.13c-1.42,0.3-2.84,0.68-4.32,0.57l0.04,0.04
		c0.36-0.56,1.01-0.52,1.54-0.69c6.39-2.01,12.78-4.01,19.18-5.98c4.79-1.47,9.59-2.9,14.39-4.33c1.95-0.58,3.93-1.09,5.88-1.65
		c0.44-0.13,0.85-0.36,1.37-0.58c-0.39-1.99-1.26-3.75-1.93-5.55c-0.67-0.32-1.32-0.19-1.95-0.19c-11.49,0.07-22.98,0.16-34.46,0.24
		c-2.33,0.02-4.67,0.05-7,0.06c-0.94,0-1.85,0.1-2.76,0.36c-1.46,0.41-2.94,0.74-4.4,1.13c-2.53,0.68-5.07,1.35-7.75,1.54
		c-3.52-0.92-7.2-1.05-10.92-1.49c-0.35,0.22-0.76,0.43-1.12,0.71c-8.59,6.62-17.17,13.24-25.76,19.87
		c-0.17,0.13-0.32,0.3-0.56,0.52c0.51,0.31,0.96,0.18,1.39,0.22c0.98,0.08,1.99,0.05,2.95,0.23c4.52,0.88,7.36,4.3,7.36,8.87
		c0.01,15.05-0.06,30.09,0.04,45.14c0.03,5.23-4.46,9.03-8.99,9.04c-3.27,0.01-6.53,0-9.8,0c-3.03,0-6.07,0.01-9.1,0
		c-2.92-0.01-5.31-1.16-7.22-3.34c-1.23-1.41-1.87-3.07-1.95-4.94c-0.02-0.64-0.01-1.28-0.01-1.92c0-14.29,0-28.58,0-42.86
		c0-0.69-0.03-1.37-0.06-2.17c-2.29-0.2-4.47,0.02-6.74,0c-0.06,0.6-0.13,1.05-0.13,1.5c-0.01,3.27-0.01,6.53-0.01,9.8
		c0,0.58,0,1.15,0,1.77c-0.3,0.09-0.52,0.2-0.73,0.2c-3.73,0.01-7.46,0-11.2,0c-0.11,0-0.22-0.06-0.44-0.12
		c-0.05-0.34-0.15-0.73-0.15-1.12c-0.02-2.1-0.01-4.2-0.01-6.3c0-0.58,0-1.16,0-1.78c-1.32-0.52-2.61-0.21-3.86-0.26
		c-1.34-0.06-2.68-0.05-4.02,0c-1.26,0.05-2.56-0.27-3.84,0.32c-0.07,0.34-0.18,0.67-0.21,1c-0.04,0.46-0.01,0.93-0.01,1.4
		c0,11.61,0,23.21,0,34.82c0,0.69,0.02,1.39,0.03,2.14c0.35,0.09,0.62,0.23,0.89,0.23c3.38,0.01,6.76,0.01,10.15,0
		c0.22,0,0.44-0.09,0.69-0.14c0.36-1.06,0.14-2.11,0.18-3.14c0.04-1.05,0-2.1,0.01-3.15c0.01-1.04-0.06-2.08,0.08-3.14
		c0.33-0.05,0.56-0.12,0.78-0.12c3.73,0.01,7.46,0.02,11.19,0.04c0.1,0,0.2,0.1,0.39,0.21c0.03,0.39,0.08,0.85,0.08,1.3
		c0.01,3.56-0.13,7.12,0.03,10.67c0.25,5.51-4.68,9.14-9.05,9.12c-6.3-0.03-12.6,0.01-18.89-0.01c-2.85-0.01-5.2-1.16-7.07-3.29
		c-1.15-1.31-1.84-2.83-1.92-4.59c-0.03-0.7-0.05-1.4-0.05-2.1c0-10.26,0-20.53-0.01-30.79c0-0.62,0.12-1.27-0.14-1.84
		c-0.55-0.2-0.83,0.16-1.15,0.36c-4.13,2.64-8.24,5.28-12.36,7.93c-0.87,0.56-1.75,1.09-2.81,1.28c2.61-2.47,5.37-4.74,8.1-7.04
		c2.76-2.33,5.54-4.63,8.34-6.98c0.02-2.24,0.06-4.44-0.03-6.67c-0.85-0.31-1.58-0.13-2.32-0.03c-0.52,0.08-1.03,0.2-1.55,0.23
		c-2.1,0.11-4.19,0.2-6.29,0.27c-5.19,0.17-10.38,0.29-15.56,0.48c-4.72,0.18-9.44,0.43-14.15,0.63c-0.87,0.04-1.75,0.01-2.62-0.02
		c-0.27-0.01-0.53-0.11-0.83-0.17c0.12-0.17,0.17-0.32,0.23-0.33c14.38-1.38,28.77-2.76,43.21-4.14c0.17-0.31,0.34-0.6,0.49-0.9
		c1.69-3.55,4.54-5.36,8.42-5.58c1.34-0.07,2.68-0.02,4.02-0.02c4.61,0,9.21,0.05,13.82-0.02c3-0.05,5.63,0.75,7.8,2.88
		c0.08,0.08,0.19,0.13,0.45,0.29c3.91-0.37,7.96-0.75,12.13-1.15c2.27-1.76,4.99-2.2,7.79-2c1.2-0.85,23.82-22.74,24.97-24.16
		c-0.06-0.17-0.13-0.38-0.22-0.63c-0.32-0.03-0.61-0.07-0.89-0.09c-4.88-0.38-9.76-0.75-14.64-1.15c-3.9-0.32-7.72-1.11-11.51-2.05
		c-1.4-0.35-1.41-0.37-3.22-1.85c0.46-0.29,0.92-0.58,1.51-0.95c0.51,0.07,1.14,0.15,1.77,0.26c1.38,0.24,2.76,0.43,4.17,0.42
		c3.79-0.04,7.58-0.01,11.37-0.07c1.98-0.03,3.97-0.08,5.94-0.28c1.28-0.13,2.55-0.2,3.83-0.25c2.94-0.12,5.81,0.34,8.68,0.83
		c2.24,0.38,4.47,0.8,6.72,1.14c0.8,0.12,1.63,0.14,2.44,0.14c9.39-0.04,18.78-0.06,28.17-0.15c6.53-0.06,13.06-0.21,19.59-0.33
		c1.4-0.03,2.79-0.1,4.25-0.15c1.45-2.29,2.67-4.67,4.05-7.05c-0.31-0.3-0.57-0.6-0.88-0.84c-1.9-1.46-3.77-2.94-5.71-4.33
		c-3.11-2.22-6.59-3.45-10.41-3.68c-2.85-0.17-5.7-0.35-8.55-0.52c-0.47-0.03-0.93-0.04-1.4-0.02c-4.08,0.2-8.15,0.4-12.23,0.61
		c-1.8,0.09-3.61,0.27-5.41,0.33c-1.75,0.06-3.49,0.02-5.24,0.01c-2.12,0-4.17-0.43-6.17-1.08c-1.38-0.45-2.77-0.91-4.15-1.37
		c-0.25-0.09-0.48-0.23-0.69-0.57c0.31-0.02,0.63-0.04,0.94-0.07c1.56-0.16,3.14-0.24,4.69-0.49c3.35-0.54,6.72-0.73,10.09-0.97
		c2.38-0.17,4.77-0.29,7.16-0.44c0.21-0.01,0.41-0.07,0.77-0.13c-0.24-0.23-0.34-0.39-0.47-0.43c-4.36-1.48-8.71-2.97-13.08-4.43
		c-0.99-0.33-2.02-0.57-3.01-0.9c-1.44-0.47-2.87-0.97-4.3-1.46c-1.43-0.49-2.86-0.98-4.39-1.5c-1.3,0.56-2.63,1.14-4.36,1.89
		c-3.73,0.37-7.9,0.78-12.08,1.21c-0.88,0.09-1.74-0.04-2.88-0.25c2.07-0.67,3.97-0.78,5.81-1.15c1.88-0.38,3.79-0.64,5.69-0.96
		c1.89-0.32,3.78-0.66,5.96-1.04c-0.55-0.23-0.84-0.43-1.14-0.46c-1.74-0.2-3.48-0.25-5.22,0.08c-2.57,0.49-5.15,0.97-7.74,1.37
		c-2.08,0.32-4.19,0.28-6.28,0.1c-0.21-0.02-0.41-0.13-0.63-0.2c0.11-0.41,0.38-0.26,0.56-0.27c0.52-0.02,1.05-0.01,1.57,0
		c3.16,0.07,6.28-0.31,9.37-0.94c2.22-0.45,4.47-0.83,6.71-1.17c0.97-0.15,1.98-0.12,2.97-0.16c1.22-0.05,2.45-0.22,3.66-0.13
		c2.6,0.18,5.23,0,7.8,0.74c6.96,2,13.74,4.44,20.27,7.59c1.41,0.68,2.87,1.29,4.33,1.95c0.45,0,0.91,0.03,1.37-0.01
		c1.69-0.13,3.37-0.26,5.05-0.44c3.55-0.38,7.11-0.28,10.66-0.18c2.69,0.08,5.3,0.76,7.89,1.45c0.28,0.07,0.56,0.15,0.84,0.21
		c0.04,0.01,0.1-0.04,0.27-0.11c-0.2-0.22-0.35-0.42-0.54-0.59c-1.71-1.59-3.44-3.15-5.13-4.76c-0.57-0.54-1.21-0.89-1.93-1.16
		c-5.14-1.89-10.27-3.8-15.42-5.67c-0.95-0.35-1.83-0.75-2.51-1.51c-0.19-0.22-0.41-0.42-0.64-0.59
		c-4.76-3.67-8.99-7.96-13.65-11.74c-1.09-0.88-2.19-1.74-3.32-2.57c-1.98-1.46-3.79-3.1-5.28-5.07c-0.42-0.56-0.9-1.07-1.34-1.62
		c-0.25-0.32-0.56-0.63-0.69-1c-0.27-0.79-0.71-1.45-1.25-2.07c-0.09-0.1-0.06-0.32-0.08-0.47c0.4-0.32,0.8-0.26,1.17-0.05
		c0.46,0.26,0.9,0.54,1.32,0.86c1.86,1.41,3.71,2.82,5.56,4.24c1.62,1.24,3.22,2.51,4.85,3.73c2.19,1.64,4.39,3.28,6.62,4.88
		c3.51,2.51,7.04,4.98,10.55,7.46c0.53,0,1-0.01,1.46,0c3.56,0.06,7.11,0.12,10.67,0.17c1.52,0.02,3.03-0.03,4.55,0.02
		c3.71,0.11,7.3-0.69,10.9-1.39c0.73-0.14,1.51-0.23,2.01-0.91c0.13-0.41-0.17-0.65-0.36-0.92c-1.52-2.14-3.05-4.27-4.57-6.41
		c-1.15-1.62-2.24-3.27-3.42-4.86c-1.43-1.92-3.31-3.25-5.62-3.91c-2.07-0.59-4.15-1.17-6.23-1.72c-2.82-0.74-5.64-1.47-8.33-2.62
		c-0.32-0.14-0.66-0.23-1-0.32c-3.27-0.83-6.52-1.75-9.85-2.36c-1.31-0.24-2.6-0.62-3.9-0.97c-0.68-0.18-1.35-0.4-1.8-1.13
		c0.03-0.21,0.08-0.48,0.12-0.73c0.22-0.11,0.38-0.26,0.53-0.26c0.75,0.03,1.51,0.04,2.25,0.18c2.23,0.44,4.45,0.94,6.67,1.41
		c0.8,0.17,1.59,0.27,2.42,0.2c1.93-0.16,3.83,0.3,5.74,0.48c0.78,0.08,1.56,0.3,2.55,0.06c-0.35-0.38-0.57-0.63-0.82-0.87
		c-1.73-1.68-3.16-3.58-4.36-5.66c-1.08-1.87-2.22-3.69-3.34-5.54c0.38-0.1,0.54,0.28,0.75,0.49c1.49,1.42,2.7,3.06,3.7,4.85
		c1.23,2.21,2.82,4.14,4.68,5.84c0.47,0.43,0.97,0.84,1.49,1.28c1.67,0.48,3.43,0.5,5.16,0.72c3.82,0.48,7.64,0.88,11.46,1.33
		c1.74,0.2,3.47,0.43,5.2,0.68c2.07,0.3,3.86,1.24,5.52,2.48c2.76,2.05,5.54,4.07,8.3,6.12c0.72,0.54,1.49,0.88,2.4,0.95
		c2.32,0.18,4.64,0.39,7.14,0.6c0.32-0.16,0.81-0.35,1.25-0.62c1.83-1.14,3.69-2.24,5.46-3.47c1.87-1.3,3.7-2.64,5.9-3.34
		c0.76-1.32,1.48-2.57,2.25-3.91c-0.26-0.24-0.48-0.49-0.75-0.69c-1.84-1.39-3.32-3.11-4.65-4.96c-0.95-1.32-1.84-2.7-2.62-4.13
		c-1.69-3.13-3.49-6.2-5.5-9.13c-0.31-0.46-0.82-0.88-0.59-1.56L306.78,322.72z M418.01,384.03c0.35-0.09,0.63-0.27,0.74-0.65
		c1.31-0.71,1.46-0.84,1.93-1.68c-1.05,0.34-1.09,0.37-2.07,1.53c-0.38,0.15-0.73,0.32-0.56,0.84c-0.07,0.01-0.14,0.02-0.16,0.02
		C417.9,384.09,417.95,384.06,418.01,384.03z M367.57,376.32c-1.85,0.72-5.16,2.87-6.51,4.24c-0.04,0.04-0.06,0.1-0.09,0.16
		c0.29,0.43,0.7,0.56,1.31,0.43c1.61-1.38,3.29-2.81,4.96-4.26c0.15-0.13,0.2-0.39,0.3-0.59l0.1-0.04L367.57,376.32z M384.05,378.09
		l-0.07-0.08l0.11,0.05c0.34,0.77,1.05,1.21,1.65,1.72c2.82,2.43,5.45,5.05,7.83,7.92c0.52,0.63,1.06,1.24,1.6,1.84
		c0.16,0.17,0.26,0.52,0.64,0.33c-0.35-1.1-0.99-2-1.67-2.87c-2.34-2.99-5.09-5.57-8.14-7.83
		C385.41,378.73,384.71,378.45,384.05,378.09z M407.52,391.38c4.21-3.36,8.31-6.86,12.63-10.46c-0.33-0.33-0.57-0.56-0.72-0.71
		c-0.9,0.19-1.36,0.65-1.85,1.03c-2.37,1.87-4.62,3.89-6.75,6.03c-0.9,0.91-1.76,1.85-2.6,2.81c-0.33,0.37-0.78,0.73-0.65,1.34
		C407.57,391.39,407.45,391.48,407.52,391.38z M388.57,330.85c0-0.05,0.01-0.1-0.01-0.14c-0.01-0.02-0.07-0.02-0.11-0.02
		c0.05,0.04,0.1,0.08,0.15,0.13c0.03,0.22,0,0.48,0.1,0.66c0.48,0.86,0.96,1.73,1.5,2.55c1.53,2.33,3.09,4.64,4.65,6.96
		c0.05,0.08,0.18,0.11,0.37,0.23c0.38-2.2,0.66-4.37,0.77-6.56c-2.2-1.62-4.47-2.89-6.92-3.83
		C388.93,330.76,388.74,330.83,388.57,330.85z M385.07,306.01c-0.03-0.06-0.07-0.12-0.06-0.11c-0.01-0.01,0.04,0.04,0.1,0.08
		c-0.04,0.21-0.08,0.42-0.12,0.66c-0.32,0-0.55,0.01-0.78,0c-3.25-0.16-6.51-0.29-9.76-0.49c-3.89-0.25-7.77-0.56-11.66-0.84
		c-0.52-0.04-1.05-0.03-1.57-0.02c-0.23,0.01-0.46,0.07-0.41,0.46c0.65,0.34,1.39,0.45,2.14,0.52c2.66,0.26,5.32,0.48,7.98,0.76
		c2.43,0.26,4.85,0.57,7.27,0.9c2.59,0.36,5.17,0.76,7.76,1.16c0.65,0.1,1.27,0.09,1.74-0.23c0.46,0.09,0.77,0.46,1.27,0.12
		c-1.19-1.02-2.29-1.97-3.4-2.89C385.45,306,385.24,306.04,385.07,306.01z M222.36,196.48c0.05-0.26-0.02-0.33-0.25-0.16
		c0.09,0.04,0.19,0.09,0.28,0.13c0.02,0.49,0.45,0.65,0.75,0.88c1.47,1.13,2.97,2.23,4.45,3.35c8.15,6.17,16.3,12.34,24.44,18.51
		c0.65,0.49,1.3,0.98,2.16,1.05l0.06,0.06l-0.1-0.04c-0.48-0.91-1.37-1.4-2.11-2.03c-2.84-2.4-5.66-4.84-8.6-7.1
		c-3.87-2.98-7.85-5.81-11.78-8.7c-2.72-2-5.44-3.98-8.36-5.67C223.02,196.59,222.76,196.32,222.36,196.48z M402.6,336.78
		c0.28-0.28,0.58-0.55,0.84-0.86c2.63-3.15,5.59-5.92,8.97-8.26c3.03-2.1,6.28-3.78,9.67-5.2c0.57-0.24,1.24-0.33,1.74-0.96
		c-1.26-0.43-2.46-0.84-3.54-1.21c-4.42,1.68-8.78,4.65-12.19,8.21c-1.9,1.99-3.53,4.18-4.88,6.57c-0.3,0.53-0.8,1.04-0.56,1.76
		c-0.08,0.02-0.16,0.03-0.09,0.02C402.49,336.92,402.55,336.85,402.6,336.78z M183.92,176.8l0.01,0.11l-0.05-0.07
		c-0.84-0.7-1.68-1.42-2.53-2.11c-8.13-6.63-13.57-14.96-16.09-25.17c-0.92-3.75-1.45-7.54-1.62-11.39
		c-0.02-0.41,0.04-0.85-0.26-1.38c-0.21,0.41-0.36,0.65-0.47,0.91c-1.37,3.29-2.35,6.71-3.06,10.2c-0.39,1.91-0.16,3.82,0.65,5.6
		c0.28,0.05,0.49,0.09,0.72,0.13c1.23,2.62,2.43,5.2,3.64,7.79c0.01,0.03-0.05,0.1-0.11,0.21c-1.75-2-2.45-4.56-3.98-7.14
		c0.09,0.75,0.07,1.1,0.18,1.41c0.26,0.71,0.56,1.41,0.87,2.1c2.27,5.06,5.51,9.36,10.23,12.34c3.59,2.27,7.36,4.27,11.05,6.36
		C183.32,176.81,183.64,176.77,183.92,176.8z M254.15,181.33c0,0,0.05,0.04,0.05,0.04c0.27-0.28,0.53-0.55,0.78-0.81
		c-1.03-1.41-2.25-2.59-3.85-3.72c-0.25,0.08-0.52,0.16-0.8,0.25c-3.7,1.23-7.39,2.51-11.11,3.69c-7.43,2.34-15.02,3.78-22.85,3.7
		c-0.22,0-0.43,0.09-0.66,0.14c-0.16,1.08,0.32,1.76,1.21,2.12c0.64,0.26,1.33,0.41,2.02,0.55c3.73,0.76,7.51,0.96,11.31,0.78
		c3.62-0.17,7.18-0.74,10.73-1.41c4.71-0.89,9.22-2.47,13.67-4.22c0.46-0.18,1-0.34,1.23-0.99
		C255.27,181.4,254.71,181.37,254.15,181.33z M266.52,205.49c0.02,0.07,0.03,0.15,0.04,0.17c-0.01-0.02-0.05-0.07-0.08-0.13
		c-0.07-0.09-0.14-0.19-0.23-0.26c-6.48-5.33-12.95-10.67-19.43-15.99c-0.35-0.29-0.76-0.5-1.13-0.74
		c-0.48,0.09-0.88,0.14-1.27,0.24c-0.4,0.09-0.78,0.22-1.18,0.33c-0.39,0.11-0.79,0.22-1.18,0.31c-0.4,0.09-0.79,0.18-1.19,0.25
		c-0.4,0.07-0.81,0.13-1.21,0.2c-0.46,0.08-0.91,0.19-1.37,0.26c-0.4,0.06-0.81,0.09-1.21,0.15c-0.4,0.06-0.8,0.15-1.2,0.2
		c-0.4,0.05-0.81,0.06-1.22,0.1c-0.4,0.05-0.81,0.11-1.21,0.18c-0.36,0.06-0.78-0.04-1.19,0.36c5.53,4.45,10.9,8.9,15.86,13.76
		c3.25,0,6.39,0,9.54-0.01c0.1,0,0.2-0.1,0.31-0.17c0.06-0.57-0.25-0.99-0.58-1.4c-1.48-1.87-2.99-3.73-4.84-5.27
		c-0.72-0.59-1.41-1.22-2.09-1.86c-0.28-0.25-0.59-0.51-0.61-1.12c0.31,0.14,0.52,0.21,0.69,0.32c1.9,1.24,3.84,2.43,5.69,3.74
		c2.85,2.02,5.72,4.02,8.73,5.79C265.42,205.21,265.86,205.68,266.52,205.49z M385.09,398.72c0.23,0,0.46,0,0.78,0
		c1.77-2.49,3.55-4.99,5.36-7.53c-0.24-0.39-0.44-0.72-0.71-1.14c-0.26,0.31-0.46,0.51-0.63,0.73c-1.25,1.61-2.5,3.22-3.76,4.82
		c-0.13,0.17-0.31,0.38-0.57,0.08c1.12-2.29,3.13-4,4.23-6.26c-2.35-3.61-11.18-10.7-15.14-12.19c-2.86,1.65-7.46,4.76-8.33,5.64
		c0.19,0.57,0.73,0.71,1.19,0.94c2.05,1.03,3.83,2.43,5.39,4.11c0.95,1.02,1.86,2.09,2.79,3.13c0.74,0.83,1.44,1.69,2.22,2.47
		c3.06,3.05,5.89,6.3,8.54,9.7c0.82,1.06,1.63,2.13,2.46,3.18c0.2,0.25,0.38,0.61,0.88,0.44c-0.02-0.15,0.01-0.32-0.06-0.45
		c-0.42-0.83-0.81-1.68-1.32-2.46c-0.95-1.47-1.97-2.89-2.96-4.33c-0.19-0.28-0.5-0.52-0.35-0.92L385.09,398.72z M395.92,364.78
		c-0.62-0.01-0.9,0.48-1.23,0.87c-2.48,2.93-4.97,5.87-7.44,8.81c-0.21,0.25-0.35,0.57-0.57,0.94c1.11,0.79,2.14,1.54,3.19,2.26
		c1.78,1.22,3.47,2.55,5.03,4.05c3.37,3.26,5.98,6.97,7,11.64c0.06,0.26,0.24,0.5,0.39,0.81c0.25-0.22,0.44-0.36,0.59-0.52
		c3.05-3.36,6.1-6.72,9.15-10.09c0.18-0.2,0.28-0.49,0.41-0.72c-0.75-1.78-1.7-3.38-2.75-4.92c-1.86-2.76-3.96-5.33-6.29-7.7
		c-1.55-1.58-3.13-3.12-4.7-4.68l-0.04,0.04c0.75-0.09,1.12,0.53,1.58,0.91c2.07,1.69,4.1,3.42,6.16,5.13
		c0.2,0.16,0.43,0.29,0.82,0.56c-0.75-1.51-8.27-12.21-9.45-13.49c-0.3,0.8-0.62,1.54-0.86,2.31c-0.23,0.72-0.37,1.46-0.56,2.21
		c-0.23,0.21-0.48,0.43-0.64,0.57c0.07,0.43,0.12,0.75,0.17,1.07L395.92,364.78z M372.86,296.52c0.03,0.02,0.06,0.05,0.1,0.07
		c-0.04-0.01-0.09-0.03-0.13-0.04c-0.12-0.24-0.19-0.54-0.38-0.72c-0.85-0.79-1.71-1.59-2.62-2.32c-2.05-1.64-4.14-3.22-6.18-4.86
		c-0.68-0.54-1.32-1.15-1.89-1.8c-2.03-2.33-4.02-4.69-6.03-7.04c-0.23-0.27-0.47-0.52-0.65-0.82c-0.08-0.14-0.01-0.36-0.01-0.81
		c0.99,0.93,1.77,1.72,2.61,2.43c1.2,1.02,2.43,2,3.67,2.96c1.52,1.17,3.14,2.22,4.59,3.48c4.26,3.72,8.45,7.51,12.68,11.27
		c1.61,1.43,3.22,2.87,4.85,4.28c0.48,0.42,1.04,0.74,1.58,1.09c0.06,0.04,0.18-0.02,0.36-0.04c-0.24-0.94-1.21-1.36-1.68-2.47
		c0.43,0.33,0.64,0.49,0.83,0.66c5.54,4.82,11.08,9.64,16.63,14.46c0.34,0.29,0.71,0.53,1.1,0.82c0.9-0.9,1.71-1.71,2.54-2.54
		c-0.55-0.92-1.34-1.44-2.05-2.01c-7.91-6.36-15.71-12.83-22.98-19.92c-2.84-2.77-5.71-5.49-8.27-8.53
		c-0.94-1.11-1.97-2.15-3.03-3.14c-1.66-1.56-3.41-3.01-5.06-4.57c-2.15-2.05-4.21-4.19-6.35-6.26c-4.54-4.37-9.1-8.71-13.65-13.06
		c-0.25-0.24-0.51-0.52-0.81-0.65c-1.57-0.68-2.84-1.82-4.22-2.79c-0.37-0.26-0.74-0.52-1.18-0.82c-0.65,0.6-1.25,1.15-1.84,1.7
		c-0.59,0.55-1.18,1.11-1.68,1.59c-0.39,4.91-0.15,13.52,0.42,15.82c1.66,1.7,3.92,2.41,6.29,3.55c-1.21,0.13-2.07,0.05-2.91-0.09
		c-2.53-0.41-5.06-0.83-7.59-1.23c-0.43-0.07-0.89-0.01-1.55-0.01c0.45,0.5,0.74,0.85,1.05,1.18c2.47,2.64,4.93,5.29,7.4,7.92
		c3.11,3.31,6.25,6.61,9.35,9.93c1.02,1.1,2.25,1.61,3.73,1.6c0.82-0.01,1.64-0.03,2.45,0.04c2.9,0.24,5.8,0.51,8.71,0.79
		c3.13,0.3,6.26,0.62,9.4,0.9C371.24,296.58,372.05,296.52,372.86,296.52z M463.83,338.89l-0.04-0.04c0.15,0.45-0.12,0.79-0.31,1.14
		c-1.82,3.4-4,6.55-6.42,9.55c-2.85,3.54-6.02,6.8-9.25,9.99c-4.93,4.87-10.01,9.59-15.58,13.73c-0.56,0.42-1.13,0.82-1.67,1.26
		c-0.14,0.11-0.18,0.35-0.32,0.64c0.38,0,0.61,0.04,0.82-0.01c0.85-0.18,1.7-0.39,2.55-0.58c6.56-1.48,12.3-4.55,17.34-8.96
		c2.86-2.5,5.37-5.33,7.8-8.23c4.42-5.29,8.3-10.94,11.54-17.02c1.67-3.14,3.16-6.36,4.59-9.61c2.48-5.67,4.26-11.57,5.7-17.58
		c0.07-0.28,0.03-0.58,0.05-0.87c0.25-0.24,0.43-0.48,0.04-0.87c0,0.36,0,0.63,0,0.91c-0.67,0.25-0.6,0.93-0.78,1.43
		c-2.1,5.87-4.28,11.7-7.06,17.29c-2.13,4.28-4.46,8.45-7.02,12.48c-3.47,5.47-7.29,10.68-11.65,15.48
		c-3.06,3.37-6.31,6.54-9.87,9.38c-0.41,0.32-0.84,0.63-1.3,0.87c-0.2,0.11-0.5,0.02-1,0.02c0.44-0.47,0.69-0.8,0.99-1.05
		c2.1-1.77,4.02-3.72,5.82-5.79c2.44-2.82,4.81-5.69,7.21-8.55c3.75-4.48,6.99-9.31,9.85-14.4c2.17-3.86,4.15-7.82,5.99-11.85
		c3.37-7.37,6.32-14.89,8.22-22.8c1.15-4.77,1.95-9.59,2.26-14.48c0.38-6.07,0.09-12.11-1.02-18.1c-0.52-2.8-1.06-5.61-2.37-8.19
		c-0.06-0.12,0.03-0.32,0.04-0.49c0,0-0.04,0.02-0.04,0.02c0.15-0.04,0.3-0.07,0.48-0.12c-0.2-0.85-0.43-1.64-0.98-2.26
		c-0.2-0.23-0.55-0.33-0.92-0.55c-0.19,0.4-0.42,0.69-0.46,1c-0.07,0.57-0.05,1.16-0.03,1.74c0.18,5.97-0.41,11.87-1.66,17.69
		c-1.55,7.28-4.59,13.9-9.12,19.83c-3.38,4.42-7.31,8.29-11.72,11.69c-5.44,4.19-11.41,7.41-17.83,9.82
		c-2.37,0.89-4.77,0.95-7.2,0.31c-0.56-0.15-1.13-0.26-1.71-0.33c-1.49-0.19-2.89,0.19-4.25,0.77c-3.77,1.62-7.25,3.7-10.41,6.33
		c-2.65,2.21-4.96,4.75-7.01,7.52c-0.33,0.44-0.85,0.84-0.68,1.52c-0.17-0.04-0.33-0.06-0.2,0.2c0.05-0.08,0.11-0.16,0.16-0.24
		c0.41-0.31,0.85-0.59,1.23-0.94c4.41-4.12,9.26-7.62,14.62-10.4c1.44-0.75,2.94-1.41,4.42-2.08c0.45-0.2,0.46-0.16,1.23,0.11
		c-2.43,1.84-4.85,3.64-7.23,5.5c-2.39,1.87-4.52,4.03-6.6,6.24c-2.12,2.25-4.09,4.62-5.91,7.12c-1.78,2.44-3.45,4.96-4.97,7.59
		c0.29,0.63,0.51,1.23,0.82,1.79c4.12,7.55,9.39,14.15,16.06,19.63c1.75,1.44,3.67,2.19,5.96,2.15c0.63-0.38,1.28-0.76,1.92-1.17
		c5.54-3.57,10.84-7.46,15.84-11.76c7.55-6.49,14.23-13.75,19.84-21.99C462.97,339.81,463.42,339.37,463.83,338.89z M194.05,485.88
		c0-0.71,0-1.34,0-1.98c0-11.82,0-23.64,0-35.46c0-0.41,0.03-0.82-0.01-1.22c-0.03-0.32-0.13-0.64-0.23-1.06
		c-1.99,0-3.91-0.02-5.82,0.01c-1.9,0.03-3.81-0.14-5.81,0.13c-0.03,0.72-0.07,1.35-0.07,1.98c0,7.86,0,15.72,0,23.58
		c0,4.19,0,8.38,0.01,12.58c0,0.5-0.13,1.04,0.19,1.49C183.84,486.17,192.35,486.17,194.05,485.88z M363.96,307.96
		c-0.05,0.11-0.11,0.23-0.16,0.34c0.45,0.43,0.89,0.88,1.37,1.29c2.37,2.07,4.78,4.09,7.11,6.19c1.45,1.31,3.03,2.32,4.89,2.94
		c5.51,1.85,11.01,3.73,16.52,5.59c0.37,0.13,0.77,0.18,1.09,0.26c2.44-2.09,5.69-5.42,6.41-6.6c-3.92-1.89-7.05-4.89-10.45-7.46
		C381.79,309.54,372.9,308.47,363.96,307.96z M172.28,120.16c0.8,0.3,1.44,0.57,2.1,0.77c4.53,1.38,8.83,3.31,12.94,5.63
		c8.02,4.53,15.7,9.59,23.19,14.95c12.45,8.92,23.71,19.2,34.53,29.99c0.58,0.57,1.2,1.1,1.82,1.63c0.1,0.09,0.29,0.08,0.62,0.16
		c-0.13-0.34-0.17-0.56-0.29-0.73c-0.34-0.47-0.68-0.94-1.06-1.39c-2.37-2.8-4.83-5.53-6.93-8.55c-0.3-0.43-0.66-0.82-1.04-1.17
		c-5.43-5.03-10.84-10.08-16.31-15.06c-8.17-7.44-17.01-13.95-26.71-19.29c-3.42-1.88-6.87-3.7-10.54-5.04
		c-3.06-1.12-6.16-2.14-9.25-3.15c-0.76-0.25-1.59-0.28-2.39-0.38c-0.14-0.02-0.3,0.14-0.5,0.24
		C172.41,119.18,172.36,119.58,172.28,120.16z M356.49,386.51c0.73-0.17,1.36-0.07,1.94,0.18c0.75,0.32,1.5,0.65,2.2,1.06
		c5.26,3.1,9.94,6.92,14.08,11.39c4.45,4.8,8.4,9.98,11.49,15.78c0.32,0.6,0.65,1.22,1.23,1.6c0.52-0.27,0.51-0.7,0.38-1.08
		c-0.15-0.44-0.39-0.85-0.61-1.25c-1.82-3.33-3.9-6.49-6.22-9.49c-3.97-5.13-8.35-9.87-13.43-13.94c-1.36-1.09-2.77-2.11-4.21-3.09
		c-1.59-1.09-3.32-1.93-5.19-2.46c-0.75-0.21-1.48-0.29-2.17,0.23c-0.59,1.23-0.32,2.38,0.23,3.52c1.44,3.02,3.19,5.84,5.51,8.25
		c4.93,5.12,9.93,10.18,14.9,15.25c0.36,0.37,0.8,0.68,1.23,0.97c0.56,0.38,1.16,0.5,1.77,0.2c0.16-0.33,0.3-0.62,0.48-0.99
		c0.68,0.43,1.27,0.79,1.85,1.16c0.54,0.35,1.07,0.71,1.61,1.05c0.56,0.35,1.06,0.85,1.9,0.99c-0.09-0.86-0.5-1.43-0.84-2
		c-1.4-2.36-3.04-4.55-4.83-6.63c-3.12-3.63-6.54-6.96-10.1-10.16c-3.21-2.88-6.53-5.63-10.03-8.16c-0.3-0.21-0.65-0.35-1.01-0.55
		c-0.1,0.46-0.17,0.79-0.27,1.27C357.26,388.82,356.77,387.79,356.49,386.51z M323.18,463.29c0.36,0.09,0.52,0.17,0.69,0.17
		c2.33,0.01,4.67,0.06,7-0.01c2.52-0.08,4.22-1.86,4.24-4.38c0.03-3.91,0.01-7.81,0-11.72c0-0.33-0.07-0.67-0.12-1.16
		c-1.98-0.06-3.89-0.06-5.8-0.02c-1.95,0.04-3.92-0.18-6.01,0.17C323.17,452.02,323.17,457.6,323.18,463.29z M256.33,185.49
		c0.85,1.26,1.7,2.13,2.67,2.89c1.19,0.94,2.35,1.91,3.51,2.89c5.63,4.72,11.21,9.49,16.91,14.13c4.61,3.76,9.32,7.39,14.03,11.02
		c5.63,4.34,11.32,8.62,16.98,12.91c0.16,0.12,0.34,0.38,0.63,0.08c-0.18-0.21-0.36-0.44-0.56-0.64
		c-3.68-3.58-7.36-7.15-11.05-10.72c-0.33-0.32-0.68-0.63-1.04-0.94c-5.48-4.62-10.95-9.27-16.46-13.86
		c-5.06-4.21-10.16-8.39-14.96-12.91c-1.95-1.84-4.04-3.52-6.11-5.23c-1.5-1.24-2.33-1.23-3.9-0.09
		C256.8,185.17,256.6,185.3,256.33,185.49z M250.38,187.49c0.42,0.39,0.66,0.64,0.92,0.86c1.21,1,2.42,2.01,3.65,2.99
		c8.57,6.81,17.14,13.62,25.72,20.42c3.6,2.86,7.22,5.7,10.84,8.54c0.21,0.16,0.41,0.43,0.75,0.09c-0.62-0.53-1.24-1.07-1.86-1.6
		c-3.56-3.01-7.11-6.02-10.67-9.02c-8.54-7.21-17.08-14.43-25.62-21.64c-0.57-0.48-1.18-0.92-1.74-1.37
		C251.72,186.99,251.18,187.19,250.38,187.49z M391.94,410.02c1.26-0.88,2.15-1.93,3.12-2.87c1.03-0.99,1.84-2.21,3.22-3.24
		c-0.76,4.47-3.18,7.78-5.74,11.02c0.2,0.32,0.37,0.61,0.53,0.87c0.01,0.6-0.54,1.09-0.15,1.78c0.21-0.04,0.47-0.02,0.61-0.14
		c0.35-0.3,0.67-0.64,0.94-1c2.2-2.87,3.87-6.07,5.72-9.16c0.51-0.85,0.73-1.83,0.6-2.94c-1.15-1.67-2.33-3.39-3.52-5.11
		c-0.05-0.08-0.2-0.09-0.3-0.14C395.07,401.12,392.41,406.81,391.94,410.02z M273.67,234.66c-0.62-0.82-1.23-1.65-1.88-2.46
		c-0.32-0.41-0.68-0.8-1.07-1.15c-2.2-1.99-4.4-3.98-6.62-5.96c-0.74-0.66-1.5-1.29-2.27-1.91c-1.73-1.37-3.29-2.93-5.13-4.2
		c-2.06-1.42-4.02-2.98-5.87-4.68c-2.36-2.17-4.82-4.22-7.46-6.05c-0.26-0.18-0.49-0.48-1-0.31c0.14,0.2,0.22,0.4,0.37,0.54
		c0.68,0.64,1.37,1.26,2.07,1.88c2.35,2.08,4.72,4.15,7.06,6.25c1.43,1.28,2.82,2.61,4.23,3.92c1.15,1.07,2.32,2.12,3.46,3.2
		c1.4,1.32,2.72,2.72,4.17,3.98c1.72,1.48,3.54,2.84,5.31,4.27C270.41,233.08,271.87,234.03,273.67,234.66z M351.75,298.03
		c1.32,0.38,2.73,0.28,4.12,0.38c1.45,0.11,2.91,0.15,4.36,0.25c1.39,0.09,2.79,0.21,4.18,0.33c1.45,0.13,2.9,0.26,4.35,0.42
		c1.39,0.16,2.77,0.47,4.16,0.54c1.42,0.07,2.8,0.67,4.43,0.36c-1.2-1.4-2.42-2.35-4.21-2.42c-1.86-0.07-3.72-0.24-5.58-0.39
		c-4.88-0.4-9.75-0.82-14.63-1.21c-0.57-0.05-1.16-0.16-1.77,0.11C351.07,297.02,351.4,297.49,351.75,298.03z M224.82,191.29
		c0.43,0.56,0.85,0.87,1.27,1.16c5.48,3.85,10.97,7.7,16.46,11.54c0.58,0.41,1.24,0.66,1.95,0.68c0.14,0,0.29-0.13,0.56-0.27
		c-5.44-4.41-10.52-9.11-16.1-13.23C227.62,191.12,226.31,191.09,224.82,191.29z M466.08,285.25c0.73-0.66,0.71-0.66,0.91-1.21
		c0.41-1.15,0.88-2.27,1.26-3.43c0.68-2.12,1.05-4.28,0.64-6.52c-0.18-0.97-0.34-1.94-0.51-2.92c-0.33-1.89-0.66-3.77-1-5.66
		c-0.09-0.51-0.12-1.05-0.76-1.44c-0.13,1.45-0.22,2.82-0.28,4.2c-0.21,5.11-0.39,10.21-0.59,15.32
		C465.73,284.18,465.71,284.75,466.08,285.25z M383.28,305.49c-0.62-1.05-1.51-1.49-2.59-1.63c-0.92-0.12-1.85-0.21-2.77-0.29
		c-5.33-0.47-10.66-0.93-15.99-1.38c-1.51-0.13-3.01-0.25-4.52-0.35c-0.3-0.02-0.7-0.14-0.88,0.4c0.42,0.34,0.86,0.7,1.3,1.06
		c8.32,0.78,16.59,1.56,24.87,2.32C382.84,305.63,383,305.55,383.28,305.49z M356.07,299.82c0.02,0.05,0.05,0.09,0.07,0.14
		c3.92,0.47,7.84,0.96,11.77,1.42c3.98,0.46,7.94,0.99,12.13,1.4c-0.23-0.41-0.32-0.68-0.51-0.87c-0.55-0.57-1.27-0.8-2.05-0.86
		c-3.08-0.23-6.15-0.46-9.23-0.67c-2.96-0.2-5.92-0.39-8.89-0.55C358.27,299.78,357.17,299.82,356.07,299.82z M281.85,385.76
		c-0.03-1.51,0.53-2.79,0.2-4.24c-2.12-0.67-4.27-1.36-6.41-2.03c-0.09-0.03-0.21,0.06-0.32,0.09
		C276.18,380.83,280.38,384.84,281.85,385.76z M370.95,376.17c-0.21-0.04-0.35-0.12-0.42-0.08c-1.69,1.12-3.38,2.23-5.05,3.39
		c-0.66,0.46-1.26,1.02-1.86,1.57c-0.18,0.17-0.25,0.45-0.41,0.74c0.84,0.28,1.34-0.15,1.82-0.55c1.78-1.48,3.56-2.97,5.33-4.46
		C370.57,376.61,370.73,376.4,370.95,376.17z M374.02,373.15c1.13-0.99,2.26-1.86,3.31-2.99c-1.43,0.27-2.23,0.71-4.13,2.27
		c-0.07,0.06-0.09,0.17-0.17,0.33C373.3,372.86,373.57,372.97,374.02,373.15z M370.98,371.63c2.22-0.39,3.93-1.63,5.43-3.21
		C374.5,369.33,372.68,370.38,370.98,371.63z"/>
	<path d="M244.1,474.2c0-13.17,0-26.34,0-39.59c0.42-0.06,0.75-0.16,1.08-0.16c3.5-0.01,7-0.01,10.5,0c0.23,0,0.46,0.04,0.78,0.07
		c0.06,0.34,0.14,0.66,0.16,0.99c0.03,0.41,0.01,0.82,0.01,1.22c0,19.59,0,39.19,0,58.78c0,0.64,0,1.28,0,1.99
		c-0.32,0.08-0.59,0.2-0.85,0.2c-5.25,0.01-10.5,0.01-15.75,0c-0.23,0-0.45-0.06-0.78-0.1c-1.71-6.54-3.32-13.09-4.99-19.63
		c-1.67-6.52-3.28-13.06-5.07-19.9c-0.35,1.04-0.26,1.74-0.26,2.43c-0.01,11.72,0,23.44-0.01,35.16c0,0.63,0.08,1.27-0.11,1.86
		c-1.55,0.24-10.76,0.24-12.35-0.01c-0.02-0.31-0.06-0.64-0.07-0.97c-0.22-10.96-0.11-60.07,0.14-61.9
		c0.04-0.04,0.09-0.08,0.13-0.11c0.05-0.03,0.1-0.07,0.15-0.07c5.36-0.02,10.73-0.03,16.09-0.04c0.23,0,0.45,0.05,0.78,0.08
		c0.17,0.54,0.37,1.08,0.51,1.63c3.05,12.15,6.1,24.29,9.15,36.44c0.14,0.56,0.31,1.1,0.46,1.66
		C243.91,474.24,244.01,474.22,244.1,474.2z"/>
	<path d="M155.88,617.07c-0.97,0.83-1.93,1.67-2.92,2.48c-0.49,0.41-1,0.81-1.54,1.15c-1.06,0.67-2.22,1-3.49,0.94
		c-1.43-0.07-2.43-0.7-2.89-2.1c-0.11-0.32-0.23-0.63-0.39-1.06c-0.53,0.5-0.94,0.9-1.35,1.29c-0.78,0.72-1.65,1.29-2.68,1.59
		c-0.39,0.11-0.79,0.22-1.19,0.23c-1.56,0.07-2.53-1.03-2.27-2.57c0.2-1.16,0.7-2.22,1.29-3.23c1.06-1.81,2.15-3.6,3.2-5.42
		c0.35-0.6,0.61-1.25,0.89-1.89c0.13-0.29,0.08-0.38-0.26-1.12c-0.64-0.24-1.15,0.11-1.59,0.48c-0.71,0.6-1.42,1.23-1.99,1.95
		c-0.83,1.05-1.57,2.17-2.29,3.3c-1.47,2.31-2.9,4.65-4.35,6.97c-0.28,0.44-0.58,0.86-0.87,1.3c-1.02,0.11-1.98,0.21-3.07-0.08
		c0.64-1.64,1.58-2.97,2.33-4.39c0.79-1.49,1.65-2.95,2.46-4.43c0.77-1.43,1.7-2.77,2.35-4.32c-0.19-0.26-0.36-0.48-0.47-0.63
		c-0.76-0.15-1.27,0.17-1.7,0.55c-0.83,0.73-1.69,1.45-2.38,2.31c-0.99,1.22-1.89,2.52-2.73,3.85c-1.22,1.92-2.34,3.9-3.51,5.85
		c-0.27,0.45-0.55,0.88-0.88,1.41c-0.88,0-1.75,0.01-2.62-0.01c-0.21,0-0.43-0.08-0.79-0.14c0.57-1.36,1.49-2.42,2.01-3.67
		c-0.35-0.26-0.48,0.02-0.63,0.15c-1.08,0.89-2.11,1.84-3.22,2.69c-1.09,0.84-2.37,1.22-3.76,1.17c-1.81-0.06-2.9-1.06-3.12-2.88
		c-0.03-0.23-0.01-0.47-0.03-0.7c-0.02-0.17-0.07-0.33-0.13-0.62c-0.47,0.34-0.89,0.63-1.29,0.95c-1.43,1.12-2.96,2.07-4.68,2.68
		c-1.49,0.53-3.01,0.86-4.62,0.67c-2.2-0.26-3.81-1.36-4.92-3.23c-1.2-2.03-1.58-4.24-1.32-6.57c0.28-2.52,1.09-4.89,2.31-7.1
		c2.54-4.59,6.09-8.23,10.47-11.07c1.47-0.95,3.07-1.71,4.81-2.02c0.96-0.17,1.97-0.27,2.95-0.18c2.35,0.21,3.91,1.9,4.11,4.26
		c0.08,1.01-0.05,1.99-0.37,2.93c-1.05,3.05-2.78,5.63-5.44,7.53c-1.21,0.87-2.54,1.37-4.07,1.37c-1.54,0-2.88-1.25-3-2.83
		c-0.14-1.88,0.58-3.42,1.87-4.72c0.96-0.97,2.11-1.63,3.53-1.86c0.17,0.16,0.32,0.31,0.46,0.44c-0.07,0.17-0.08,0.32-0.15,0.37
		c-0.33,0.23-0.66,0.47-1.02,0.65c-1.45,0.75-2.34,1.88-2.55,3.65c0.1,0.28,0.17,0.69,0.37,1.04c0.49,0.83,1.25,1.18,2.21,1.1
		c0.97-0.08,1.81-0.48,2.52-1.11c2.19-1.95,3.18-4.41,2.99-7.32c-0.15-2.26-1.66-3.5-4.06-3.33c-1.94,0.14-3.76,0.78-5.36,1.93
		c-1.1,0.79-2.08,1.7-2.91,2.76c-2.71,3.44-4.65,7.26-5.46,11.59c-0.2,1.07-0.26,2.22-0.14,3.3c0.3,2.8,1.8,4.64,5.23,4.76
		c1.41,0.05,2.79-0.29,4.07-0.86c1.01-0.45,1.98-0.99,2.92-1.56c1.01-0.61,1.78-1.43,2.35-2.52c1.48-2.82,3.77-4.85,6.55-6.36
		c1.09-0.59,2.26-0.92,3.47-1.13c0.34-0.06,0.7-0.07,1.04-0.03c1.02,0.12,1.72,0.96,1.53,1.96c-0.13,0.67-0.39,1.38-0.8,1.9
		c-0.65,0.81-1.4,1.57-2.25,2.17c-1.67,1.19-3.53,2.04-5.59,2.32c-0.28,0.04-0.55,0.16-0.96,0.29c-0.6,1.25-1.27,2.53-1.22,4.05
		c0.02,0.61,0.14,1.17,0.91,1.51c0.62,0.21,1.34,0.01,2.05-0.31c1.02-0.46,1.92-1.1,2.74-1.85c2.89-2.62,5.12-5.72,6.78-9.24
		c0.2-0.42,0.29-0.88,0.47-1.31c0.15-0.37,0.34-0.71,0.53-1.11c1.1,0,2.13,0,3.11,0c0.58,0.52,0.16,1.16,0.36,1.77
		c0.48,0,0.76-0.39,1.09-0.66c0.68-0.55,1.37-1.06,2.23-1.35c1.24-0.41,2.29-0.26,3.11,0.93c0.06,0.47,0.13,0.98,0.22,1.63
		c0.29-0.12,0.56-0.17,0.74-0.33c0.36-0.3,0.64-0.68,0.99-0.98c1.09-0.93,2.29-1.6,3.79-1.56c1.54,0.04,2.48,1.12,2.26,2.66
		c-0.08,0.57-0.27,1.14-0.54,1.65c-0.73,1.39-1.52,2.75-2.3,4.12c-0.75,1.31-1.53,2.61-2.29,3.92c-0.26,0.46-0.51,0.93-0.29,1.53
		c0.54,0.42,1.09,0.23,1.56-0.15c0.85-0.7,1.66-1.45,2.22-1.94c0.7-1.56,1.19-2.8,1.81-3.99c1.53-2.94,3.9-5.05,6.8-6.58
		c1.04-0.55,2.17-0.84,3.32-1.04c0.39-0.07,0.82-0.06,1.21,0.01c0.75,0.13,1.22,0.68,1.3,1.44c0.09,0.86-0.18,1.61-0.67,2.3
		c-0.65,0.91-1.44,1.69-2.37,2.3c-1.67,1.1-3.44,1.95-5.44,2.27c-0.39,0.06-0.76,0.25-1.11,0.36c-0.58,1.04-0.94,2.09-1.18,3.17
		c-0.19,0.83-0.11,1.63,0.6,2.21c0.85,0.37,1.63,0.14,2.39-0.2c1.18-0.53,2.23-1.28,3.11-2.22c1.27-1.36,2.5-2.77,3.72-4.17
		c0.8-0.92,1.68-1.78,2.23-2.9c0.33-0.68,0.82-1.28,1.12-1.98c0.29-0.68,0.42-1.42,0.64-2.23c1.1-0.19,2.24-0.12,3.34-0.11
		c0.56,0.79,0.02,1.42-0.02,2.1c0.34,0.18,0.49-0.15,0.69-0.28c0.74-0.47,1.45-0.98,2.2-1.42c0.78-0.46,1.66-0.52,2.54-0.48
		c0.68,0.03,1.24,0.28,1.68,0.95c0.36,1.21,0.19,2.45-0.48,3.61c-0.38,0.65-0.83,1.27-1.23,1.91c-1.22,1.91-2.45,3.82-3.65,5.75
		c-0.3,0.48-0.62,1-0.34,1.75c0.3,0,0.65,0.07,0.94-0.01c0.93-0.28,1.47-0.67,2.65-1.77c0.78-2.39,2.14-4.57,3.45-6.77
		c1.28-2.15,2.61-4.28,3.91-6.42c0.24-0.39,0.43-0.8,0.7-1.3c-0.76-0.06-1.38-0.1-2.13-0.16c-0.03-0.38-0.05-0.74-0.09-1.24
		c1.03,0,1.95,0,2.85,0c1.91-2.22,3.19-4.68,4.12-7.26c1.4-0.6,2.39-0.64,4.05-0.19c-0.25,1.4-1.01,2.56-1.72,3.74
		c-0.69,1.14-1.44,2.25-2.18,3.4c0.62,0.53,1.41,0.01,2.06,0.48c0,0.27,0,0.59,0,0.97c-0.95,0.39-1.97-0.03-3.02,0.32
		c-0.47,0.7-0.99,1.47-1.5,2.25c-1.91,2.93-3.74,5.91-5.28,9.05c-0.54,1.1-0.98,2.24-1.41,3.38c-0.23,0.6-0.19,0.61,0.22,1.46
		c0.76,0.39,1.48,0.23,2.11-0.26c1.05-0.83,2.02-1.71,2.62-2.99c0.59-1.26,1.35-2.45,2.06-3.65c0.71-1.2,1.5-2.37,2.16-3.6
		c0.49-0.91,0.83-1.91,1.28-2.97c1.07-0.49,2.25-0.36,3.56-0.19c-0.06,0.43-0.04,0.79-0.17,1.08c-0.58,1.21-1.15,2.42-1.83,3.57
		c-1.24,2.11-2.56,4.17-3.82,6.27c-0.33,0.55-0.6,1.13-0.85,1.72c-0.22,0.52-0.14,1.03,0.31,1.45c0.51,0.29,1,0.16,1.47-0.12
		c0.91-0.54,1.73-1.21,2.3-2.11c2.1-3.36,4.17-6.74,6.19-9.99c0.08-0.68,0.14-1.2,0.2-1.77c1.19-0.44,2.38-0.19,3.47-0.25
		c0.64,0.82-0.03,1.45,0.04,2.26c0.6-0.42,1.13-0.81,1.67-1.18c1.08-0.74,2.23-1.24,3.59-1.16c0.74,0.04,1.38,0.24,1.84,1.01
		c0.37,1.27,0.12,2.55-0.6,3.75c-0.36,0.6-0.78,1.16-1.16,1.75c-1.22,1.91-2.46,3.82-3.65,5.76c-0.29,0.47-0.65,0.99-0.27,1.74
		c0.22,0,0.51,0.07,0.76,0c0.92-0.25,1.71-0.74,2.39-1.4c1.01-0.98,1.82-2.07,2.45-3.36c1.58-3.27,4.01-5.85,7.04-7.83
		c0.58-0.38,1.23-0.67,1.88-0.91c1.67-0.63,3.3-0.81,4.69,0.75c1.17-1.51,2.73-1.1,4.37-1.09c-0.19,0.46-0.29,0.83-0.48,1.16
		c-1.63,2.76-3.26,5.52-4.92,8.26c-1.55,2.54-3.14,5.05-4.72,7.57c-1.12,1.78-2.33,3.49-3.85,4.96c-2.71,2.62-5.95,3.79-9.71,3.53
		c-0.4-0.03-0.82-0.07-1.21-0.18c-0.75-0.2-1.43-0.54-1.84-1.24c-0.4-0.71-0.38-1.45-0.06-2.17c0.94-0.87,0.94-0.87,2.26-0.87
		c0.22,0.28,0.49,0.63,0.76,0.97c-0.24,0.63-0.45,1.16-0.63,1.62c0.22,0.83,0.77,1.09,1.45,1.15c0.96,0.09,1.88-0.09,2.7-0.55
		c0.76-0.42,1.55-0.87,2.14-1.48c2.49-2.57,4.42-5.54,5.88-8.81l0.07-0.1l-0.03,0.14c-0.41-0.13-0.63,0.21-0.92,0.37
		c-0.66,0.36-1.29,0.81-2,1.05c-1.63,0.57-2.89-0.1-3.41-1.73c-0.15-0.48-0.27-0.98-0.45-1.64c-1.89,1.93-3.79,3.55-6.5,3.85
		c-0.53-0.07-1.09-0.19-1.47-0.72c-0.41-0.56-0.44-1.19-0.41-1.84c0.05-0.96,0.45-1.81,0.93-2.61c0.72-1.2,1.49-2.37,2.24-3.55
		c0.79-1.23,1.59-2.44,2.36-3.68c0.33-0.53,0.76-1.07,0.38-1.88c-0.22-0.01-0.51-0.1-0.76-0.03c-1.04,0.28-1.9,0.89-2.63,1.66
		c-1.2,1.27-2.35,2.59-3.3,4.07c-1.73,2.69-3.51,5.37-5.3,8.1c-1.19,0.14-2.38,0.31-3.47-0.22c-0.95,0.27-1.82,0.63-2.73,0.76
		c-1.73,0.24-2.47-0.4-2.71-2.14c-0.03-0.23-0.04-0.46-0.08-0.83c-0.36,0.22-0.64,0.38-0.9,0.55c-0.93,0.6-1.85,1.21-2.79,1.79
		c-0.56,0.35-1.19,0.44-1.85,0.39c-0.94-0.07-1.68-0.44-2.09-1.33c-0.12-0.26-0.23-0.52-0.38-0.85c-0.85,0.54-1.59,1.09-2.41,1.49
		c-0.83,0.4-1.74,0.64-2.42,0.89c-0.81-0.09-1.37-0.21-1.76-0.72c-0.42-0.55-0.46-1.18-0.43-1.83c0.04-0.9,0.39-1.71,0.83-2.46
		c0.68-1.15,1.41-2.28,2.13-3.41c0.81-1.28,1.65-2.54,2.46-3.82c0.25-0.39,0.46-0.81,0.61-1.25c0.12-0.34,0.08-0.7-0.5-0.94
		c-1.12,0.19-2.15,0.82-2.97,1.75c-1.11,1.27-2.24,2.54-3.2,3.92c-1.72,2.49-3.32,5.07-4.98,7.61c-0.16,0.24-0.34,0.46-0.55,0.73
		c-0.83,0-1.64,0.01-2.45-0.01c-0.22-0.01-0.43-0.11-0.77-0.21c0.12-0.33,0.18-0.6,0.31-0.83c0.43-0.76,0.91-1.49,1.33-2.26
		c0.19-0.34,0.27-0.74,0.41-1.11C155.84,617.06,156.03,616.89,155.88,617.07z M214.91,607.1c-0.72-0.52-1.35-0.34-1.89,0.01
		c-0.63,0.41-1.25,0.87-1.78,1.39c-2.28,2.22-4.07,4.8-5.49,7.63c-0.34,0.67-0.54,1.41-0.75,2.13c-0.12,0.41,0.01,0.81,0.5,1.15
		c0.95,0.29,1.86-0.08,2.66-0.7c0.64-0.5,1.23-1.09,1.72-1.72c1.17-1.52,2.34-3.06,3.39-4.67c0.63-0.96,1.07-2.06,1.55-3.12
		C215.11,608.56,215.17,607.87,214.91,607.1z M122.99,606.57c-1.16,0.23-1.82,0.89-2.47,1.54c-1.71,1.68-3.05,3.58-3.54,4.98
		c0.05,0.02,0.11,0.06,0.16,0.06c0.11,0,0.24,0.02,0.34-0.03c2.26-0.96,4.09-2.43,5.28-4.6c0.19-0.35,0.32-0.75,0.4-1.14
		C123.21,607.18,123.08,606.94,122.99,606.57z M156.41,606.56c-1.09,0.24-1.7,0.78-2.28,1.34c-1.53,1.5-2.83,3.18-3.96,5.25
		c0.46-0.06,0.76-0.02,0.99-0.13c2.04-0.95,3.71-2.33,4.9-4.27c0.21-0.34,0.4-0.72,0.48-1.11
		C156.6,607.35,156.48,607.01,156.41,606.56z"/>
	<path d="M487.62,526.34c0,14.04,0,28.02,0,41.96c-1.34,0.4-3.31,0.41-4.71,0.07c-0.24-1.75-0.34-41.71-0.14-57
		c0.01-0.4,0.04-0.79,0.06-1.27c0.38-0.04,0.66-0.09,0.93-0.09c0.93-0.01,1.85,0,2.86,0.01c2.53,6.97,5.04,13.86,7.54,20.76
		c2.49,6.88,4.97,13.76,7.62,20.6c0.32-1.99,0.2-3.95,0.22-5.91c0.02-1.92,0-3.85,0-5.77c0-1.98,0-3.97,0-5.95c0-1.92,0-3.85,0-5.77
		c0-1.98,0-3.97,0-5.95c0-1.92,0-3.85,0-5.77c0-1.98,0-3.96,0-6.03c0.37-0.08,0.69-0.2,1.01-0.2c1.21-0.02,2.42,0.01,3.5,0.01
		c0.18,0.17,0.23,0.2,0.26,0.25c0.03,0.05,0.04,0.11,0.04,0.16c0.02,19.07,0.03,38.13,0.04,57.2c0,0.23-0.05,0.46-0.08,0.73
		c-1.09,0.44-2.19,0.11-3.15,0.21c-0.65-0.46-0.7-1.09-0.89-1.62c-3.99-10.95-7.96-21.9-11.93-32.85c-0.81-2.25-1.63-4.49-2.45-6.73
		C488.22,527.02,488.17,526.59,487.62,526.34z"/>
	<path d="M335.44,551.45c0-6.96,0-13.84,0-20.71c0-6.82,0-13.63,0-20.52c1.62-0.42,3.15-0.08,4.77-0.23
		c0.04,0.54,0.08,0.87,0.08,1.21c0.21,10.49,0.1,55.39-0.14,57.24c-1.07,0.31-2.16,0.19-3.37,0.09c-0.21-0.52-0.44-1.04-0.64-1.58
		c-4.69-12.92-9.38-25.85-14.07-38.77c-0.21-0.59-0.46-1.17-0.78-2c-0.32,0.62-0.24,1.06-0.24,1.47c-0.01,6.24,0,12.48,0,18.72
		c0,6.71,0,13.41,0,20.12c0,0.64-0.02,1.27-0.03,1.95c-1.59,0.36-3.09,0.13-4.69,0.15c-0.06-0.44-0.12-0.76-0.14-1.09
		c-0.02-0.35-0.01-0.7-0.01-1.05c0-18.08,0-36.15,0-54.23c0-0.64,0-1.27,0-1.97c1.26-0.41,2.47-0.15,3.66-0.2
		c0.54,0.48,0.62,1.14,0.84,1.73c3.26,8.98,6.52,17.96,9.77,26.94c1.39,3.83,2.78,7.67,4.17,11.5
		C334.8,550.63,334.85,551.12,335.44,551.45z"/>
	<path d="M306.76,539.32c0,7.93,0,15.85,0,23.78c0,0.64,0.02,1.29-0.05,1.92c-0.19,1.79-1.44,3.13-3.21,3.44
		c-0.57,0.1-1.16,0.13-1.74,0.13c-4.9,0.01-9.79,0.01-14.69,0c-0.52,0-1.05-0.06-1.57-0.1c-1.8-0.15-3.23-1.83-3.32-3.52
		c-0.03-0.52-0.05-1.05-0.05-1.57c0-16.09,0-32.17,0-48.26c0-0.52,0-1.05,0.06-1.57c0.22-1.93,1.6-3.32,3.53-3.53
		c0.46-0.05,0.93-0.03,1.4-0.03c4.9,0,9.79,0,14.69,0c0.47,0,0.94-0.02,1.4,0.04c1.91,0.24,3.31,1.66,3.5,3.57
		c0.07,0.64,0.05,1.28,0.05,1.92C306.76,523.47,306.76,531.4,306.76,539.32z M301.57,563.91c0.01-0.71,0.03-1.34,0.03-1.98
		c0-15.09,0-30.17,0-45.26c0-0.35,0.02-0.7-0.01-1.05c-0.02-0.33-0.09-0.65-0.15-1.04c-0.39-0.02-0.67-0.06-0.96-0.06
		c-4.25,0.01-8.5,0.02-12.75,0.04c-0.1,0-0.2,0.09-0.33,0.16c-0.29,0.58-0.16,1.23-0.16,1.86c-0.01,15.14-0.01,30.29-0.01,45.43
		c0,0.35-0.03,0.7,0.01,1.05c0.04,0.32,0.15,0.64,0.23,0.93C289.49,564.21,300.05,564.16,301.57,563.91z"/>
	<path d="M55.19,568.51c-0.18-1.55-0.21-56.48-0.05-58.33c0.31-0.05,0.64-0.16,0.97-0.16c4.2-0.01,8.4-0.05,12.6,0
		c4.87,0.06,8.81,3.02,9.98,7.53c0.32,1.22,0.41,2.53,0.42,3.81c0.05,4.55,0.02,9.1,0.02,13.65c0,7.29,0.01,14.58-0.01,21.87
		c0,0.93-0.08,1.86-0.16,2.79c-0.39,4.38-4.2,8.32-8.85,8.78c-0.81,0.08-1.63,0.15-2.44,0.15c-3.73,0.02-7.46,0.01-11.2,0
		C56.08,568.6,55.68,568.55,55.19,568.51z M60.41,564.12c2.58-0.04,5.08,0.11,7.57-0.11c0.29-0.02,0.58-0.07,0.87-0.12
		c2.45-0.42,4.57-2.35,4.91-4.8c0.1-0.69,0.2-1.39,0.2-2.08c0.01-11.82,0.01-23.65,0-35.47c0-0.81-0.09-1.63-0.28-2.42
		c-0.49-2.09-1.83-3.48-3.83-4.19c-0.7-0.25-1.48-0.37-2.22-0.39c-2.21-0.05-4.43-0.02-6.64-0.01c-0.22,0-0.44,0.07-0.65,0.11
		c-0.07,0.22-0.17,0.38-0.17,0.55c-0.01,16.07,0,32.15,0.01,48.22C60.18,563.58,60.28,563.74,60.41,564.12z"/>
	<path d="M127.04,527.73c-1.7,0.17-3.3,0.09-4.98,0.06c-0.22-0.96-0.1-1.83-0.12-2.69c-0.02-0.87,0-1.75,0-2.62
		c0-0.82,0-1.63,0-2.45c0-0.87,0-1.75,0-2.62c0-0.87,0-1.74,0-2.65c-0.3-0.09-0.51-0.21-0.72-0.21c-3.96-0.01-7.93-0.01-11.89,0
		c-0.16,0-0.32,0.08-0.43,0.11c-0.1,0.09-0.15,0.12-0.18,0.17c-0.03,0.05-0.04,0.11-0.04,0.17c-0.02,16.03-0.03,32.06-0.04,48.09
		c0,0.23,0.05,0.46,0.09,0.69c0.01,0.05,0.06,0.09,0.12,0.17c0.13,0.04,0.29,0.15,0.45,0.15c3.91,0.01,7.81,0.02,11.72,0.01
		c0.22,0,0.45-0.07,0.74-0.13c0.06-0.23,0.16-0.45,0.16-0.66c0.01-6.24,0.01-12.48,0-18.71c0-0.17-0.06-0.34-0.11-0.62
		c-0.3-0.06-0.62-0.19-0.94-0.19c-1.22-0.02-2.45,0-3.67-0.02c-0.45-0.01-0.91-0.07-1.41-0.12c-0.17-1.46-0.19-2.82,0-4.23
		c0.3-0.06,0.52-0.13,0.74-0.13c3.32,0,6.65,0,9.97,0.02c0.16,0,0.31,0.11,0.56,0.2c0.03,0.39,0.08,0.78,0.08,1.18
		c0,7.7,0.01,15.39-0.01,23.09c0,0.63-0.07,1.29-0.24,1.89c-0.44,1.61-1.51,2.6-3.19,2.83c-0.63,0.09-1.28,0.11-1.92,0.11
		c-4.37,0.01-8.74,0.01-13.12,0c-0.47,0-0.93-0.01-1.4-0.04c-2.6-0.2-3.64-2.13-3.79-3.87c-0.03-0.35-0.02-0.7-0.02-1.05
		c0-16.21,0-32.41,0.01-48.62c0-0.69,0.05-1.41,0.22-2.07c0.46-1.72,1.76-2.76,3.51-2.93c0.35-0.03,0.7-0.02,1.05-0.02
		c4.66,0,9.33,0,13.99,0c0.23,0,0.47-0.01,0.7,0c2.31,0.08,3.82,1.42,4.14,3.71c0.05,0.34,0.05,0.7,0.05,1.05c0,3.96,0,7.93,0,11.89
		C127.13,527,127.08,527.33,127.04,527.73z"/>
	<path d="M534.87,527.8c-0.06-2.32-0.02-4.47-0.03-6.61c-0.01-2.14,0.01-4.29-0.01-6.54c-2.27-0.22-4.41-0.08-6.55-0.11
		c-2.15-0.03-4.3-0.01-6.54-0.01c-0.08,0.41-0.17,0.73-0.19,1.06c-0.03,0.46-0.01,0.93-0.01,1.4c0,14.92,0,29.85,0,44.77
		c0,0.69,0,1.39,0,2.13c0.37,0.09,0.64,0.22,0.91,0.22c3.79,0.01,7.58,0.01,11.37,0c0.28,0,0.56-0.09,0.9-0.15
		c0.04-0.4,0.11-0.73,0.12-1.07c0.17-7.08,0.08-17.24-0.18-18.98c-1.9-0.35-3.88,0.05-5.8-0.23c-0.35-1.2-0.38-2.24-0.12-4.26
		c1.8-0.32,3.66-0.11,5.49-0.14c1.86-0.03,3.72-0.04,5.64,0.02c0.07,0.44,0.17,0.77,0.17,1.1c0.01,7.87,0.01,15.74-0.01,23.61
		c0,0.63-0.1,1.29-0.3,1.88c-0.48,1.44-1.48,2.35-3.02,2.57c-0.63,0.09-1.28,0.12-1.92,0.13c-4.43,0.01-8.86,0.01-13.29,0
		c-0.47,0-0.93-0.02-1.4-0.05c-2.08-0.16-3.37-1.57-3.69-3.58c-0.07-0.46-0.05-0.93-0.05-1.4c0-16.21,0-32.41,0.01-48.62
		c0-0.69,0.06-1.41,0.24-2.07c0.47-1.7,1.68-2.6,3.39-2.85c0.4-0.06,0.81-0.03,1.22-0.03c4.66,0,9.33,0,13.99,0
		c0.47,0,0.94-0.03,1.39,0.06c1.62,0.32,2.75,1.24,3.18,2.87c0.13,0.5,0.23,1.03,0.23,1.55c0.02,4.2,0.01,8.39,0,12.59
		c0,0.17-0.06,0.33-0.11,0.61C538.32,527.96,536.71,527.79,534.87,527.8z"/>
	<path d="M387,563.91c1.63,0.27,12.1,0.27,13.76,0.03c0.04-0.29,0.11-0.62,0.13-0.94c0.02-0.52,0.01-1.05,0.01-1.57
		c0-16.38,0-32.76,0-49.14c0-0.69,0.03-1.38,0.04-2.03c1.37-0.29,3.15-0.32,5.02-0.08c0.04,0.36,0.1,0.75,0.11,1.14
		c0.01,2.74,0.01,5.48,0.01,8.22c0,14.46,0,28.91,0,43.37c0,0.64,0.02,1.29-0.03,1.92c-0.16,1.96-1.61,3.55-3.55,3.71
		c-0.41,0.03-0.81,0.08-1.22,0.08c-4.9,0-9.79,0.01-14.69,0c-0.46,0-0.93-0.07-1.39-0.11c-1.6-0.13-3.11-1.65-3.26-3.39
		c-0.05-0.52-0.06-1.05-0.06-1.57c0-17.25,0-34.51,0-51.76c0-0.52,0.04-1.03,0.07-1.62c1.67-0.27,3.26-0.11,4.91-0.11
		c0.25,1.94,0.09,3.74,0.12,5.54c0.03,1.75,0.01,3.5,0.01,5.25c0,1.81,0,3.61,0,5.42c0,1.81,0,3.61,0,5.42c0,1.81,0,3.61,0,5.42
		c0,1.75,0,3.5,0,5.25c0,1.81,0,3.61,0,5.42c0,1.81,0,3.61,0,5.42c0,1.75-0.01,3.5,0,5.25C386.97,560.23,386.93,562.03,387,563.91z"
		/>
	<path d="M367.22,514.63c-0.21-0.03-0.43-0.1-0.66-0.1c-3.79,0.01-7.58,0.02-11.37,0.04c-0.1,0-0.2,0.1-0.3,0.15
		c-0.25,1.32-0.33,8.77-0.12,12.14c0.26,0.33,0.57,0.75,0.9,1.15c4.95,5.97,9.88,11.95,14.86,17.89c1.38,1.64,2.08,3.43,2.04,5.59
		c-0.07,4.02-0.02,8.05-0.02,12.07c0,0.52-0.02,1.05-0.07,1.57c-0.16,1.69-1.59,3.23-3.27,3.36c-0.58,0.05-1.16,0.1-1.74,0.1
		c-4.26,0.01-8.51,0.01-12.77,0c-0.64,0-1.29-0.03-1.91-0.15c-1.66-0.32-2.66-1.37-3.04-2.99c-0.11-0.45-0.14-0.92-0.14-1.39
		c-0.01-4.43-0.01-8.86,0-13.29c0-0.23,0.05-0.46,0.08-0.68c1.06-0.41,2.86-0.46,4.91-0.14c0.03,0.48,0.1,0.98,0.1,1.49
		c0.01,3.56,0,7.11,0.01,10.67c0,0.57,0.02,1.15,0.03,1.79c0.44,0.08,0.77,0.2,1.1,0.2c3.5,0.01,7,0.01,10.49,0.01
		c0.28,0,0.57-0.06,0.92-0.1c0.07-0.3,0.19-0.57,0.19-0.84c0.01-4.2,0-8.4,0-12.59c0-0.17-0.04-0.35-0.08-0.66
		c-0.47-0.59-1.01-1.27-1.57-1.94c-4.64-5.62-9.28-11.23-13.93-16.85c-0.15-0.18-0.29-0.36-0.45-0.54
		c-1.24-1.43-1.85-3.07-1.81-4.97c0.03-1.05,0-2.1,0-3.15c0-2.39,0-4.78,0-7.17c0-0.58,0-1.17,0.08-1.74
		c0.26-2.01,1.7-3.36,3.73-3.53c0.41-0.03,0.82-0.02,1.22-0.02c4.31,0,8.63,0,12.94,0c0.41,0,0.82-0.02,1.22,0.02
		c2.02,0.16,3.46,1.54,3.7,3.55c0.04,0.35,0.05,0.7,0.05,1.05c0,4.08,0,8.16,0,12.24c0,0.23-0.04,0.46-0.06,0.69
		c-1.1,0.35-2.84,0.39-4.93,0.1c-0.04-0.47-0.11-0.97-0.11-1.48c-0.01-3.21,0-6.41-0.01-9.62
		C367.45,515.93,367.58,515.27,367.22,514.63z"/>
	<path d="M267.82,514.72c-1.72-0.26-11.55-0.25-12.98-0.01c-0.04,0.2-0.13,0.42-0.13,0.64c-0.01,16.15-0.01,32.3-0.01,48.52
		c0.42,0.1,0.74,0.23,1.06,0.24c3.62,0.02,7.23,0.01,10.85,0.01c0.34,0,0.67-0.08,1.1-0.13c0.19-1.22,0.08-2.38,0.1-3.53
		c0.02-1.17,0-2.33,0-3.5s-0.01-2.33,0-3.5c0.01-1.15-0.05-2.31,0.05-3.43c1.42-0.32,3.37-0.34,5.01-0.07
		c0.04,0.37,0.13,0.76,0.13,1.15c0.01,4.2,0.02,8.4-0.01,12.6c0,0.69-0.08,1.41-0.28,2.07c-0.44,1.45-1.45,2.38-2.95,2.67
		c-0.62,0.12-1.27,0.15-1.91,0.16c-4.43,0.01-8.86,0.01-13.3,0c-0.58,0-1.17-0.04-1.74-0.13c-1.71-0.29-2.92-1.56-3.15-3.28
		c-0.08-0.58-0.08-1.16-0.08-1.75c0-16.1,0-32.19,0-48.29c0-0.52,0-1.05,0.06-1.57c0.22-1.93,1.6-3.32,3.52-3.54
		c0.35-0.04,0.7-0.03,1.05-0.03c4.67,0,9.33-0.01,14,0.01c0.69,0,1.4,0.08,2.06,0.28c1.32,0.41,2.15,1.36,2.49,2.7
		c0.14,0.56,0.23,1.15,0.23,1.73c0.02,4.08,0.01,8.16,0,12.25c0,0.22-0.06,0.44-0.11,0.74c-1.66,0.19-3.26,0.09-4.94,0.07
		c-0.24-0.95-0.11-1.82-0.14-2.68c-0.02-0.87,0-1.75,0-2.62c0-0.82,0-1.63,0-2.45c0-0.87,0-1.75,0-2.62
		C267.82,516.56,267.82,515.69,267.82,514.72z"/>
	<path d="M201.43,568.51c-0.55,0.04-0.9,0.09-1.24,0.09c-1.16,0.01-2.32,0-3.38,0c-0.53-0.49-0.54-1.03-0.62-1.53
		c-0.51-3.22-1-6.44-1.51-9.67c-0.08-0.51-0.23-1.01-0.32-1.42c-0.13-0.11-0.18-0.16-0.23-0.19c-0.05-0.03-0.11-0.06-0.16-0.06
		c-3.38-0.02-6.76-0.04-10.14-0.06c-0.29,0-0.57,0.03-0.75,0.05c-0.54,0.38-0.53,0.86-0.6,1.32c-0.57,3.56-1.14,7.13-1.72,10.69
		c-0.04,0.23-0.11,0.45-0.16,0.65c-1.38,0.29-3.29,0.3-4.74,0.01c-0.01-0.21-0.08-0.44-0.04-0.66c3.4-19.2,6.81-38.4,10.23-57.66
		c1.68-0.37,3.29-0.13,4.85-0.18c0.49,0.53,0.51,1.12,0.61,1.68c1.86,10.49,3.71,20.98,5.56,31.48c1.41,7.97,2.81,15.94,4.21,23.91
		C201.37,567.41,201.38,567.88,201.43,568.51z M193.59,550.96c-0.23-2.78-4.59-29.47-5.07-30.94c-0.14,0.57-0.28,1.01-0.35,1.46
		c-1.55,9.65-3.1,19.31-4.64,28.96c-0.03,0.16,0.05,0.34,0.07,0.5C184.89,551.24,192.02,551.26,193.59,550.96z"/>
	<path d="M360.94,607.94c0.71-0.04,1.07-0.65,1.6-0.98c1.1-0.69,2.23-1.25,3.59-1.17c1.43,0.08,2.19,0.82,2.06,2.22
		c-0.07,0.74-0.3,1.49-0.6,2.17c-0.3,0.68-0.79,1.29-1.19,1.93c-1.22,1.91-2.46,3.82-3.66,5.75c-0.33,0.53-0.7,1.08-0.53,1.72
		c0.32,0.4,0.67,0.32,1.01,0.21c1.04-0.33,1.66-0.77,2.65-1.79c0.58-1.52,1-2.86,1.59-4.11c1.44-3.05,3.74-5.31,6.66-6.96
		c1.18-0.67,2.45-1.06,3.78-1.29c0.83-0.14,1.64-0.12,2.22,0.64c0.57,0.75,0.4,1.54,0.07,2.32c-0.43,0.99-1.13,1.77-1.95,2.43
		c-1.79,1.46-3.82,2.44-6.09,2.9c-0.39,0.08-0.79,0.18-1.28,0.29c-0.62,1.3-1.29,2.58-1.24,4.1c0.02,0.62,0.16,1.16,0.79,1.46
		c0.75,0.25,1.47,0.04,2.18-0.27c1.07-0.48,2.05-1.13,2.86-1.98c1.17-1.22,2.29-2.48,3.43-3.73c0.47-0.51,0.9-1.05,1.35-1.57
		c0.46,0.24,0.22,0.5,0.14,0.74c-0.04,0.11-0.11,0.21-0.17,0.3c-2.05,2.95-4.57,5.43-7.52,7.47c-0.92,0.64-2,0.91-3.15,0.91
		c-1.41,0-2.5-0.48-3.07-1.85c-0.05-0.11-0.1-0.21-0.16-0.31c-0.06-0.1-0.14-0.18-0.27-0.36c-0.64,0.22-1.04,0.83-1.62,1.16
		c-0.61,0.34-1.2,0.73-1.84,1c-0.64,0.27-1.33,0.42-2.01,0.62c-0.46-0.15-0.89-0.29-1.26-0.41c-0.83-0.95-0.97-1.96-0.55-3.01
		c0.37-0.91,0.78-1.82,1.3-2.66c1.22-1.99,2.51-3.93,3.77-5.89c0.4-0.63,0.87-1.24,0.92-2.1c-0.16-0.14-0.33-0.28-0.5-0.42
		c-1.24,0.21-2.2,0.86-3.02,1.71c-1.22,1.26-2.38,2.56-3.33,4.04c-1.7,2.65-3.42,5.28-5.14,7.92c-0.06,0.09-0.17,0.16-0.33,0.32
		c-1.12,0.09-2.33,0.23-3.4-0.25c-0.97,0.27-1.84,0.6-2.75,0.76c-1.14,0.2-2.08-0.13-2.53-1.34c-0.05-0.15-0.2-0.26-0.36-0.45
		c-0.57,0.31-1.11,0.63-1.67,0.9c-0.42,0.2-0.86,0.36-1.31,0.47c-0.71,0.18-1.39,0.09-2.1-0.63c-0.15-0.46-0.37-1.12-0.62-1.86
		c-1.65,1.33-3.31,2.62-5.7,2.81c-0.25-0.09-0.69-0.23-1.05-0.36c-0.82-0.96-0.95-1.97-0.53-3.02c0.37-0.91,0.79-1.82,1.3-2.65
		c1.22-1.99,2.51-3.93,3.77-5.89c0.4-0.63,0.87-1.24,0.9-2.1c-0.17-0.13-0.35-0.27-0.52-0.39c-1.18,0.21-2.1,0.8-2.89,1.6
		c-1.18,1.21-2.33,2.45-3.25,3.88c-1.74,2.69-3.49,5.38-5.24,8.06c-0.09,0.14-0.23,0.26-0.39,0.45c-1.03,0.05-2.11,0.25-3.3-0.26
		c0.44-0.79,0.81-1.5,1.23-2.18c1.8-2.93,3.61-5.85,5.42-8.78c0.4-0.64,0.83-1.28,1.13-1.97c0.3-0.68,0.44-1.42,0.68-2.22
		c1.11-0.16,2.25-0.2,3.52-0.05c0.02,0.38,0.06,0.71,0.03,1.03c-0.03,0.34-0.12,0.67-0.18,1.01c-0.06,0.04-0.11,0.07-0.11,0.07
		c0,0,0.04-0.05,0.08-0.11c0.71-0.04,1.07-0.65,1.6-0.98c1.05-0.65,2.12-1.18,3.41-1.19c1.64-0.01,2.49,0.96,2.22,2.58
		c-0.12,0.73-0.4,1.46-0.73,2.13c-0.3,0.62-0.77,1.17-1.14,1.75c-1.19,1.86-2.39,3.72-3.56,5.6c-0.33,0.53-0.7,1.08-0.5,1.9
		c0.26,0.03,0.55,0.15,0.78,0.08c1.79-0.6,3.11-1.67,3.89-3.47c0.74-1.7,1.66-3.34,2.6-4.94c2.65-4.52,5.35-9.02,8.04-13.52
		c0.48-0.81,0.93-1.62,0.93-2.63c1.21-0.37,2.42-0.37,3.49-0.56c0.51,0.43,0.46,0.86,0.32,1.23c-0.18,0.49-0.44,0.95-0.7,1.4
		c-2.6,4.49-5.22,8.96-7.8,13.45c-1.22,2.12-2.36,4.28-3.53,6.43c-0.28,0.51-0.59,1.01-0.5,2.02c-0.01-0.01,0.18,0.18,0.24,0.23
		c1-0.05,1.49-0.46,2.08-0.98c0.84-2.77,2.63-5.17,4.15-7.71c0.84-1.4,1.74-2.76,1.98-4.39c1.21-0.72,2.42-0.37,3.52-0.43
		c0.34,0.63,0.16,1.07-0.06,1.48c-0.64,1.24-1.27,2.49-1.98,3.69c-1.15,1.96-2.37,3.87-3.55,5.81c-0.27,0.45-0.55,0.9-0.74,1.38
		c-0.24,0.61-0.32,1.24,0.12,1.78c0.64,0.35,1.17,0.16,1.68-0.17c0.89-0.57,1.69-1.25,2.25-2.16c1.86-3.02,3.75-6.04,5.56-9.09
		c0.46-0.77,0.65-1.7,1.01-2.67c0.51-0.2,1.16-0.09,1.79-0.12c0.51-0.02,1.03,0.02,1.66,0.04c0.02,0.41,0.06,0.74,0.03,1.06
		c-0.03,0.34-0.12,0.67-0.18,1.01c-0.06,0.04-0.11,0.07-0.11,0.07C360.86,608.05,360.9,607.99,360.94,607.94z M371.58,613.02
		c0.55,0.33,0.99,0.03,1.37-0.18c1.59-0.88,3.02-1.99,4.08-3.49c0.39-0.56,0.63-1.24,0.87-1.89c0.13-0.35-0.01-0.69-0.45-0.84
		c-0.81,0.18-1.41,0.73-1.99,1.3C373.9,609.43,372.6,611.11,371.58,613.02z"/>
	<path d="M249.35,616.04c-0.28,0.17-0.6,0.3-0.85,0.52c-1,0.89-1.95,1.84-2.98,2.69c-0.76,0.62-1.6,1.17-2.45,1.67
		c-0.92,0.54-1.95,0.74-3.03,0.69c-1.43-0.06-2.27-0.72-2.65-2.09c-0.25-0.91-0.29-1.82-0.1-2.76c0.37-1.8,1.09-3.44,2.07-4.97
		c1.19-1.87,2.44-3.7,3.68-5.53c1.27-1.88,2.62-3.72,3.84-5.63c0.75-1.17,1.4-2.42,1.97-3.69c0.5-1.12,0.76-2.33,0.36-3.52
		c-0.56-0.92-1.43-1.07-2.32-1.01c-0.75,0.05-1.5,0.21-2.22,0.42c-1.42,0.41-2.69,1.14-3.79,2.11c-2.91,2.58-5.35,5.52-6.79,9.19
		c-0.32,0.81-0.55,1.66-0.71,2.51c-0.09,0.49,0,1.04,0.09,1.55c0.16,0.91,0.75,1.42,1.66,1.55c1.32,0.2,2.55,0.02,3.61-0.89
		c0.39-0.33,0.82-0.62,1.2-0.9c0.42,0.28,0.36,0.58,0.18,0.81c-1.04,1.35-2.26,2.53-3.81,3.27c-2.81,1.35-5.48-0.04-6.08-3.11
		c-0.26-1.3,0.03-2.55,0.38-3.79c0.14-0.5,0.35-0.99,0.57-1.46c2.44-5.17,6.34-8.86,11.52-11.21c1.94-0.88,4-1.27,6.13-1.03
		c2.19,0.24,3.44,1.58,3.62,3.78c0.11,1.36-0.1,2.69-0.62,3.93c-0.5,1.18-1.02,2.36-1.7,3.44c-1.42,2.27-2.91,4.5-4.43,6.71
		c-1.32,1.93-2.55,3.9-3.57,6c-0.35,0.72-0.56,1.51-0.81,2.19c0.13,0.41,0.18,0.7,0.31,0.95c0.29,0.59,0.8,0.87,1.43,0.76
		c0.51-0.09,1.06-0.21,1.46-0.5c0.9-0.64,1.78-1.32,2.55-2.1c3.11-3.17,5.87-6.64,8.23-10.4c2.2-3.5,4.29-7.07,6.43-10.61
		c0.39-0.64,0.8-1.27,1.14-1.82c1.41-0.49,2.55-0.55,4.16-0.24c0.02,0.29,0.1,0.62,0.05,0.93c-0.05,0.27-0.24,0.53-0.39,0.77
		c-2.34,3.82-4.7,7.64-7.03,11.47c-2.3,3.78-4.59,7.57-6.86,11.37c-1.68,2.8-3.41,5.56-5.52,8.07c-1.89,2.26-4.12,4.1-6.77,5.43
		c-2.68,1.35-5.52,1.8-8.48,1.57c-1-0.08-1.95-0.35-2.8-0.9c-1.71-1.09-2.22-3.37-1.1-5.06c0.28-0.42,0.7-0.78,1.13-1.05
		c0.84-0.52,1.71-0.38,2.39,0.29c0.62,0.61,0.81,1.64,0.39,2.42c-0.27,0.5-0.64,0.96-0.95,1.43c0.2,1.27,1.1,1.67,2.11,1.8
		c0.68,0.09,1.4-0.01,2.08-0.15c1.51-0.3,2.85-1,4.06-1.95c1.58-1.23,2.93-2.68,4.03-4.34c1.95-2.97,3.83-5.99,5.73-8.99
		c0.12-0.18,0.13-0.43,0.2-0.65c0.06-0.05,0.12-0.11,0.11-0.1C249.42,615.9,249.39,615.97,249.35,616.04z"/>
	<path d="M162.94,514.53c-0.18,2.42-0.07,4.62-0.09,6.83c-0.02,2.27,0,4.55,0,6.82c0,2.21,0,4.43,0,6.64c0,2.27,0,4.55,0,6.82
		c0,2.21,0,4.43,0,6.64s0,4.43,0,6.64c0,2.27,0,4.55,0,6.82c0,2.21,0.02,4.42-0.01,6.59c-1.35,0.34-3.28,0.36-5.04,0.08
		c-0.04-0.3-0.1-0.62-0.11-0.95c-0.02-0.47-0.01-0.93-0.01-1.4c0-16.44,0-32.87,0-49.31c0-0.68,0.07-1.38-0.12-2.13
		c-1.04-0.17-2.02-0.07-3-0.09c-0.93-0.02-1.87,0-2.8,0c-0.98,0-1.97,0-2.97,0c-0.38-0.81-0.21-1.57-0.22-2.3
		c-0.02-0.68-0.07-1.38,0.08-2.02c1.6-0.26,21.63-0.26,23.19,0c0.03,0.25,0.08,0.53,0.08,0.8c0.01,1.1,0,2.19-0.01,3.38
		c-1.07,0.26-2.05,0.11-3.02,0.14c-0.93,0.03-1.86,0.01-2.8,0.01C165.11,514.53,164.12,514.53,162.94,514.53z"/>
	<path d="M457.57,617.46c-0.43-0.17-0.62,0.19-0.87,0.4c-1.03,0.86-2.02,1.76-3.08,2.57c-1.14,0.88-2.47,1.28-3.93,1.2
		c-1.71-0.09-2.82-1.12-3-2.82c-0.12-1.18,0.09-2.32,0.53-3.42c1.51-3.84,4.08-6.74,7.74-8.67c1.1-0.58,2.27-0.88,3.48-1.1
		c0.17-0.03,0.35-0.04,0.52-0.04c1.46-0.02,2.29,1.02,1.92,2.41c-0.25,0.92-0.78,1.69-1.45,2.36c-1.87,1.87-4.15,2.96-6.69,3.56
		c-0.45,0.1-0.89,0.19-1.38,0.3c-0.78,1.62-1.58,3.17-1.13,4.93c0.64,0.93,1.45,0.84,2.25,0.59c1.07-0.33,2.03-0.91,2.85-1.66
		c0.9-0.83,1.77-1.69,2.6-2.59c1.1-1.2,2.23-2.39,3.2-3.7c0.89-1.21,1.63-2.55,2.34-3.89c0.29-0.54,0.32-1.21,0.48-1.9
		c1.16-0.17,2.3-0.14,3.56-0.11c0.02,0.44,0.06,0.77,0.04,1.09c-0.03,0.34-0.12,0.67-0.18,1.01c-0.06,0.04-0.11,0.07-0.11,0.07
		c0,0,0.04-0.05,0.08-0.11c0.71-0.04,1.07-0.65,1.6-0.98c1.05-0.65,2.12-1.18,3.41-1.19c1.63-0.01,2.49,0.95,2.22,2.58
		c-0.12,0.73-0.41,1.46-0.73,2.13c-0.3,0.62-0.76,1.17-1.14,1.75c-1.19,1.86-2.39,3.72-3.56,5.6c-0.33,0.53-0.7,1.08-0.49,1.9
		c0.26,0.03,0.54,0.14,0.79,0.07c1.04-0.27,1.92-0.82,2.72-1.72c0.27-2.32,1.28-4.46,2.64-6.45c1.23-1.8,2.77-3.3,4.58-4.51
		c1.54-1.02,3.22-1.62,5.08-1.61c0.84,0.01,0.84,0.02,2.04,0.71c0.59,1.74-0.8,2.63-1.56,3.78c-0.54-0.14-0.57-0.41-0.6-0.71
		c-0.05-0.58-0.09-1.16-0.2-1.73c-0.08-0.43-0.37-0.71-0.85-0.83c-0.95-0.04-1.59,0.58-2.15,1.25c-0.89,1.08-1.78,2.17-2.54,3.34
		c-0.85,1.32-1.61,2.7-2.32,4.1c-0.33,0.66-0.56,1.42-0.65,2.15c-0.15,1.17,0.21,1.62,1.63,2.28c0.59-0.24,1.33-0.44,1.96-0.83
		c0.99-0.61,1.92-1.31,2.84-2.02c0.75-0.57,1.28-1.3,1.65-2.2c1.41-3.4,3.76-5.98,6.96-7.81c1.23-0.7,2.55-1.14,3.94-1.37
		c0.83-0.13,1.67-0.13,2.21,0.65c0.52,0.75,0.42,1.58,0.04,2.33c-0.31,0.61-0.73,1.2-1.2,1.7c-1.83,1.91-4.13,2.99-6.67,3.58
		c-0.51,0.12-1.05,0.11-1.56,0.61c-0.48,0.85-0.83,1.89-1.08,2.97c-0.21,0.92-0.09,1.25,0.63,2.23c0.81,0.36,1.59,0.13,2.35-0.21
		c1.18-0.53,2.23-1.28,3.11-2.22c1.31-1.4,2.56-2.87,3.84-4.3c0.25-0.28,0.37-0.75,0.96-0.69c-0.02,0.16,0,0.34-0.08,0.46
		c-0.55,0.82-1.07,1.67-1.7,2.42c-1.57,1.88-3.35,3.57-5.31,5.05c-1.19,0.9-2.51,1.46-4.04,1.42c-1.74-0.05-2.72-0.8-3.13-2.46
		c-0.11-0.44-0.19-0.9-0.31-1.51c-0.49,0.39-0.89,0.69-1.27,1.01c-1.07,0.9-2.18,1.75-3.47,2.32c-0.43,0.19-0.86,0.38-1.3,0.5
		c-1.5,0.41-2.94-0.11-3.84-1.38c-0.1-0.14-0.15-0.32-0.25-0.46c-0.09-0.13-0.22-0.24-0.39-0.43c-1.56,1.28-3.19,2.39-5.4,2.6
		c-0.29-0.1-0.72-0.25-1.08-0.37c-0.82-0.97-0.95-1.98-0.52-3.02c0.37-0.91,0.79-1.82,1.3-2.65c1.22-1.98,2.51-3.92,3.77-5.89
		c0.4-0.63,0.87-1.24,0.9-2.1c-0.17-0.13-0.35-0.26-0.52-0.39c-1.18,0.21-2.1,0.8-2.89,1.6c-1.18,1.21-2.33,2.45-3.25,3.88
		c-1.74,2.69-3.49,5.37-5.24,8.06c-0.09,0.14-0.23,0.26-0.33,0.38c-1.76,0.24-2.19,0.21-3.33-0.26c0.36-0.66,0.72-1.31,1.08-1.96
		c0.3-0.56,0.59-1.12,0.89-1.68c0.04-0.07,0.34-0.07,0.06-0.23C457.58,617.28,457.58,617.37,457.57,617.46z M458.23,606.59
		c-1.05,0.16-1.64,0.71-2.23,1.26c-1.68,1.56-3.24,3.71-3.84,5.28c0.19,0,0.38,0.05,0.52-0.01c2.32-0.98,4.18-2.49,5.38-4.74
		c0.16-0.3,0.27-0.65,0.33-0.99C458.42,607.19,458.31,606.96,458.23,606.59z M494.49,606.62c-0.34,0.06-0.6,0.04-0.77,0.15
		c-0.57,0.38-1.17,0.76-1.66,1.23c-1.43,1.37-2.6,2.95-3.61,4.66c-0.07,0.11-0.03,0.28-0.05,0.44c1.65-0.28,3.78-1.7,5.09-3.45
		C494.1,608.85,494.78,608.01,494.49,606.62z"/>
	<path d="M452.16,568.5c-1.55,0.18-3.1,0.16-4.73,0.01c-0.06-0.38-0.15-0.7-0.17-1.03c-0.03-0.52-0.01-1.05-0.01-1.57
		c0-16.39,0-32.77-0.01-49.16c0-0.69,0.12-1.39-0.2-2.11c-1.45-0.19-2.9-0.07-4.35-0.09c-1.45-0.02-2.91,0-4.33,0
		c-0.38-1.21-0.41-2.72-0.11-4.37c0.15-0.04,0.31-0.13,0.47-0.13c7.41,0,14.81,0.01,22.22,0.02c0.1,0,0.2,0.1,0.42,0.21
		c0.09,1.31,0.08,2.68-0.01,4.13c-1.03,0.25-2.02,0.1-2.99,0.13c-0.93,0.03-1.87,0.01-2.8,0.01c-0.98,0-1.97,0-3.02,0
		c-0.08,0.44-0.16,0.77-0.18,1.1c-0.03,0.52-0.01,1.05-0.01,1.57c0,16.39,0,32.77-0.01,49.16
		C452.35,567.05,452.48,567.75,452.16,568.5z"/>
	<path d="M213.96,564.02c2.46,0.19,4.67,0.07,6.87,0.1c2.15,0.02,4.3-0.01,6.5,0.02c0.24,1.52,0.22,2.89,0.03,4.35
		c-2.08,0.26-4.12,0.09-6.14,0.12c-2.04,0.03-4.08,0.01-6.12,0.01c-2.03,0-4.06,0.01-6.18-0.02c-0.06-0.47-0.11-0.8-0.13-1.13
		c-0.02-0.29-0.01-0.58-0.01-0.87c0-18.19,0-36.38,0-54.57c0-0.58,0-1.16,0-1.75c0.84-0.46,1.67-0.2,2.46-0.25
		c0.81-0.05,1.63-0.01,2.52-0.01c0.07,0.39,0.17,0.71,0.19,1.03c0.03,0.52,0.01,1.05,0.01,1.57c0,16.38,0,32.76,0,49.15
		C213.96,562.46,213.96,563.16,213.96,564.02z"/>
	<path d="M415.62,510.07c1.63,0,3.13,0,4.74,0c0.07,0.35,0.16,0.67,0.18,0.99c0.03,0.52,0.01,1.05,0.01,1.57
		c0,16.38,0,32.76,0,49.14c0,0.69,0.02,1.38,0.04,2.18c0.55,0.06,1,0.16,1.44,0.16c3.38,0.01,6.76,0,10.14,0.01
		c0.57,0,1.13,0.05,1.78,0.08c0.16,1.48,0.19,2.84-0.01,4.24c-0.28,0.06-0.51,0.14-0.73,0.14c-5.71,0-11.42,0-17.14-0.02
		c-0.16,0-0.32-0.11-0.49-0.17c-0.05-0.18-0.12-0.35-0.12-0.52c-0.01-19.06-0.01-38.12,0-57.19
		C415.47,510.54,415.55,510.38,415.62,510.07z"/>
	<path d="M285.35,612.81c0.26-0.1,0.51-0.2,0.86-0.34c0,0.25,0.06,0.44-0.01,0.55c-1.48,2.46-3.2,4.73-5.25,6.74
		c-0.94,0.92-2.03,1.56-3.41,1.7c-0.62-0.11-1.16-0.41-1.59-1.19c0-0.75,0-1.67,0-2.56c-0.44-0.24-0.57,0.1-0.74,0.27
		c-0.45,0.46-0.85,0.96-1.3,1.42c-0.82,0.84-1.73,1.56-2.86,1.95c-1.81,0.61-3.18-0.38-3.11-2.29c0.02-0.52,0.18-1.03,0.29-1.54
		c0.07-0.32,0.16-0.64,0.3-1.16c-1,0.97-1.81,1.81-2.68,2.57c-1.33,1.17-2.83,2.04-4.57,2.47c-1.1,0.27-2.19,0.27-3.27-0.12
		c-1.72-0.61-2.65-1.87-2.68-3.68c-0.02-0.95,0.19-1.86,0.57-2.72c1.83-4.23,4.91-7.17,9.19-8.84c1.13-0.44,2.35-0.64,3.6-0.28
		c1.8,0.52,2.66,1.54,2.65,3.39c0,0.52-0.09,1.04-0.18,1.56c-0.09,0.51-0.23,1-0.37,1.63c1.34-1.52,2.29-3.37,3.19-6.13
		c1-0.42,2.08-0.34,3.24-0.28c0.27,0.83,0.16,1.54-0.19,2.23c-0.5,0.99-0.99,1.98-1.54,2.94c-1.05,1.81-2.16,3.59-3.22,5.41
		c-0.44,0.75-0.8,1.54-1.21,2.33c0.26,0.34,0.45,0.59,0.61,0.8c0.82,0.06,1.35-0.3,1.8-0.76c0.77-0.8,1.56-1.58,2.22-2.47
		c2.11-2.87,4.11-5.8,5.37-9.17c0.14-0.37,0.38-0.71,0.58-1.08c1.17-0.28,2.31-0.36,3.6-0.16c-0.24,0.69-0.38,1.32-0.66,1.87
		c-0.47,0.93-1.02,1.83-1.55,2.73c-0.86,1.46-1.77,2.88-2.57,4.36c-0.5,0.92-0.86,1.91-1.24,2.88c-0.12,0.3-0.09,0.66-0.16,1.24
		c0.41-0.26,0.65-0.37,0.84-0.54c1.61-1.54,3-3.26,4.15-5.17c1.23-2.04,2.35-4.16,3.54-6.23c0.28-0.49,0.41-1.1,1.08-1.46
		c0.51,0.25,1.07,0.53,1.54,0.76c1.48,0.44,2.7-0.37,3.91-0.54c0.51,0.27,0.49,0.62,0.31,0.95c-0.23,0.4-0.49,0.79-0.78,1.16
		c-1.8,2.31-3.25,4.83-4.77,7.32c-0.56,0.92-0.92,1.89-0.69,2.99c0.05,0.26,0.24,0.49,0.38,0.75c0.9-0.07,1.5-0.55,1.98-1.12
		c1.02-1.19,1.99-2.43,2.97-3.66c0.54-0.67,0.91-1.48,1.53-2.03c0.4,0.02,0.47,0.26,0.37,0.48c-0.14,0.32-0.32,0.62-0.54,0.89
		c-1.28,1.66-2.54,3.34-3.88,4.95c-0.63,0.75-1.39,1.41-2.17,2.01c-0.5,0.38-1.11,0.67-1.71,0.84c-1.46,0.42-2.72-0.5-2.77-2.03
		c-0.02-0.68,0.1-1.4,0.3-2.05c0.44-1.4,1.14-2.68,2.13-3.78c0.82-0.91,1.67-1.79,2.48-2.71c0.37-0.42,0.88-0.77,0.94-1.43
		c-0.81-0.14-1.61-0.27-2.38-0.41c-1,1.01-1.81,2.33-2.38,3.82c-0.03,0.03-0.07,0.07-0.1,0.1
		C285.32,612.91,285.33,612.86,285.35,612.81z M258.8,619.48c0.65,0.79,1.33,0.88,2.12,0.53c0.86-0.38,1.64-0.86,2.3-1.54
		c2.47-2.54,4.21-5.52,5.3-8.89c0.12-0.38,0.22-0.79,0.23-1.19c0.01-0.57,0.01-1.18-0.56-1.52c-0.63-0.22-1.18-0.05-1.68,0.27
		c-0.58,0.38-1.16,0.77-1.69,1.22c-1.78,1.53-3.27,3.3-4.4,5.35c-0.56,1.01-1.01,2.09-1.42,3.17
		C258.68,617.69,258.53,618.56,258.8,619.48z"/>
	<path d="M137.04,510.13c1.53-0.22,3.08-0.1,4.74-0.08c0.06,0.36,0.15,0.68,0.18,1c0.03,0.35,0.01,0.7,0.01,1.05
		c0,18.12,0,36.25,0,54.37c0,0.63-0.02,1.27-0.03,1.87c-1.43,0.35-3.59,0.35-4.98,0c-0.03-0.43-0.09-0.88-0.09-1.34
		C136.66,549.5,136.77,511.83,137.04,510.13z"/>
	<path d="M93.64,568.44c-2.12,0.26-3.7,0.23-4.97-0.09c-0.03-0.43-0.09-0.88-0.09-1.34c-0.2-17.3-0.09-55.15,0.17-56.84
		c0.76-0.32,1.59-0.12,2.39-0.16c0.75-0.04,1.5-0.01,2.35-0.01c0.07,0.39,0.16,0.71,0.19,1.04c0.03,0.46,0.01,0.93,0.01,1.4
		c0,17.95,0,35.9,0,53.85C93.67,566.99,93.65,567.68,93.64,568.44z"/>
	<path d="M468.05,510.02c1.44,0,2.77,0,4.11,0c0.22,0,0.44,0.07,0.74,0.11c0.03,0.39,0.08,0.72,0.09,1.06
		c0.2,8.81,0.09,55.37-0.13,57.15c-1.17,0.34-3.3,0.37-4.84,0.04c-0.04-0.26-0.11-0.54-0.13-0.82
		C467.71,562.84,467.83,511.68,468.05,510.02z"/>
	<path d="M426.3,618.22c-0.44,0.45-0.78,0.83-1.14,1.18c-0.85,0.8-1.73,1.57-2.86,1.95c-1.82,0.61-3.33-0.54-3.15-2.47
		c0.06-0.63,0.25-1.26,0.47-1.85c0.51-1.37,1.24-2.63,2.25-3.71c0.84-0.89,1.67-1.79,2.48-2.71c0.3-0.34,0.54-0.72,0.87-1.15
		c-0.92-0.15-1.71-0.28-2.6-0.43c-0.23,0.27-0.52,0.54-0.73,0.88c-0.71,1.13-1.39,2.29-2.09,3.43c-1.24,2.05-2.59,4.01-4.26,5.75
		c-0.93,0.97-1.93,1.83-3.23,2.46c-0.13-0.26-0.22-0.44-0.32-0.62c0.16-0.19,0.25-0.35,0.38-0.44c2.6-1.77,4.62-4.1,6.28-6.73
		c1.3-2.07,2.44-4.23,3.66-6.36c0.31-0.55,0.63-1.1,0.91-1.6c0.84-0.21,1.2,0.57,1.66,0.6c1.25,0.38,2.24,0.04,3.25-0.27
		c0.43-0.13,0.87-0.41,1.29,0.09c0.11,0.58-0.28,0.98-0.59,1.37c-1.77,2.25-3.26,4.68-4.71,7.14c-0.41,0.7-0.76,1.44-1.05,2.2
		c-0.28,0.74-0.21,1.48,0.35,2.09c0.55,0.09,0.95-0.17,1.31-0.47c1.03-0.87,1.9-1.81,2.39-3.14c1.38-3.75,3.88-6.58,7.39-8.53
		c1.19-0.66,2.46-1.07,3.79-1.27c2-0.3,3.04,1,2.26,2.87c-0.26,0.63-0.7,1.22-1.16,1.72c-1.85,1.98-4.2,3.08-6.8,3.69
		c-0.45,0.1-0.89,0.21-1.29,0.3c-0.72,1.07-1.05,2.18-1.31,3.31c-0.18,0.76-0.09,1.51,0.55,2.13c0.7,0.38,1.42,0.24,2.15-0.05
		c1.33-0.52,2.46-1.34,3.43-2.36c1.32-1.4,2.57-2.86,3.83-4.31c0.39-0.44,0.73-0.92,1.44-0.89c0.75-0.98,1.49-1.96,2.23-2.93
		c0.39-0.51,0.82-0.99,1.16-1.53c1.05-1.66,2.53-2.1,4.36-1.67c0.26,0.3,0.05,0.58-0.09,0.79c-0.57,0.84-0.8,1.8-1.01,2.77
		c-0.34,1.59-0.67,3.19-1.07,4.77c-0.43,1.71-1.07,3.33-2.21,4.71c-1.46,1.76-3.32,2.71-5.64,2.63c-0.4-0.01-0.81-0.09-1.19-0.22
		c-0.78-0.25-1.3-0.76-1.4-1.61c-0.03-0.23-0.05-0.45-0.08-0.78c-1.16,0.72-1.89,1.88-3.24,2.39c-0.61,0.04-1.37-0.22-2.08,0.16
		c-0.19,0.1-0.46,0.07-0.69,0.1c-2.06,0.22-3.55-0.69-3.86-2.64C426.55,618.76,426.43,618.56,426.3,618.22z M439.39,620.56
		c0.23-0.09,0.46-0.13,0.65-0.25c0.9-0.58,1.56-1.36,2.04-2.32c1.26-2.51,1.98-5.19,2.52-7.92c0.03-0.13-0.08-0.28-0.16-0.52
		c-0.23,0.23-0.4,0.38-0.54,0.55c-2.12,2.54-4.23,5.08-6.34,7.62c-0.05,0.06-0.02,0.19-0.02,0.29c0.33,0.07,0.66,0.13,1.02,0.2
		C438.77,618.99,438.32,619.95,439.39,620.56z M431.94,613.01c0.7,0.33,1.21-0.05,1.67-0.33c1.35-0.81,2.59-1.78,3.54-3.04
		c0.48-0.63,0.78-1.41,1.09-2.15c0.13-0.32,0.03-0.69-0.45-0.86c-0.72,0.13-1.3,0.62-1.84,1.13
		C434.36,609.3,433.02,611.02,431.94,613.01z"/>
	<path d="M318.71,594.69c0.51-0.29,0.91-0.63,1.33-0.94c1.13-0.84,2.32-1.56,3.68-1.97c0.28-0.08,0.55-0.19,0.84-0.24
		c2.77-0.51,4.33,0.58,4.92,3.34c0.38,1.76,0.16,3.48-0.2,5.2c-0.16,0.74-0.35,1.48-0.62,2.18c-1.89,5.07-4.42,9.76-8.09,13.78
		c-1.38,1.51-2.89,2.87-4.66,3.93c-1.79,1.07-3.7,1.67-5.79,1.71c-3.33,0.06-5.79-1.88-6.53-5.13c-0.44-1.92-0.34-3.82,0.17-5.71
		c0.21-0.78,0.48-1.56,0.82-2.3c2.49-5.42,6.22-9.81,11.09-13.24c0.67-0.47,1.36-0.89,2.26-1.05
		C318.18,594.38,318.48,594.54,318.71,594.69c-0.22,0.09-0.33,0.21-0.45,0.33c-0.23,0.01-0.39,0.08-0.34,0.36
		c-0.22,0.05-0.46,0.05-0.64,0.15c-1.13,0.64-2.11,1.48-2.91,2.48c-1.33,1.69-2.65,3.4-3.84,5.19c-1.19,1.8-1.96,3.82-2.6,5.89
		c-0.51,1.63-0.71,3.3-0.53,5c0.23,2.27,1.64,3.85,3.87,4.4c1.92,0.48,3.73,0.18,5.31-1c1.07-0.79,2.08-1.69,2.98-2.68
		c2.85-3.13,5.02-6.7,6.59-10.63c0.54-1.36,0.91-2.76,1.1-4.21c0.17-1.28,0.16-2.56-0.19-3.81c-0.56-2.04-1.97-2.97-4.05-2.69
		c-1.26,0.17-2.32,0.76-3.25,1.57c-1.82,1.58-2.99,3.57-3.49,5.91c-0.2,0.95-0.22,1.98-0.11,2.95c0.23,2.02,1.84,3.18,3.84,2.88
		c0.81-0.12,1.58-0.39,2.26-0.88c0.47-0.33,0.95-0.65,1.51-1.02c0.07,0.3,0.11,0.52,0.16,0.73c-0.56,0.75-1.28,1.23-2.01,1.71
		c-1.29,0.85-2.69,1.36-4.23,1.52c-1.26,0.12-2.29-0.29-3.08-1.28c-0.92-1.14-1.32-2.45-1.12-3.91c0.24-1.75,0.8-3.4,1.85-4.85
		c0.65-0.89,1.38-1.73,2.05-2.61c0.2-0.26,0.35-0.57,0.52-0.86c0.26,0.01,0.38-0.11,0.33-0.37
		C318.47,595.02,318.6,594.91,318.71,594.69z"/>
	<path d="M406.6,606.33c0.11,0.22,0.18,0.36,0.27,0.55c-0.15,0.24-0.27,0.52-0.46,0.73c-1.66,1.79-3.69,2.84-6.15,2.85
		c-2.17,0.01-3.3-1.09-3.55-3.27c-0.15-1.36,0.09-2.67,0.53-3.95c0.54-1.57,1.37-2.97,2.5-4.17c3.85-4.06,8.47-6.72,14.08-7.44
		c2.28-0.3,4.54-0.06,6.7,0.79c3.32,1.3,5.18,4.15,4.24,8.32c-0.45,1.96-1.56,3.5-3.17,4.67c-2.12,1.55-4.52,2.08-7.11,1.83
		c-0.4-0.04-0.82-0.1-1.02-0.69c0.17-0.09,0.34-0.22,0.54-0.27c0.16-0.04,0.34,0.03,0.52,0.06c1.82,0.22,3.34-0.41,4.54-1.74
		c1.44-1.6,2.35-3.45,2.58-5.62c0.34-3.26-1.58-5.74-4.82-6.12c-3.92-0.45-7.53,0.31-10.71,2.77c-1.2,0.93-2.45,1.79-3.43,2.97
		c-1.37,1.63-2.46,3.41-2.68,5.58c-0.06,0.62-0.03,1.28,0.11,1.9c0.26,1.16,1.04,1.79,2.21,1.89c1.27,0.11,2.43-0.14,3.44-0.97
		C406.02,606.78,406.29,606.57,406.6,606.33z"/>
	<path d="M390.85,615.04c1.54,0.52,1.75,0.81,1.85,2.57c-0.12,0.18-0.28,0.42-0.45,0.65c-0.17,0.23-0.35,0.46-0.45,0.59
		c-0.11,0.65,0.1,1.09,0.5,1.34c0.48,0.3,1.03,0.56,1.58,0.65c1,0.15,1.96-0.13,2.89-0.51c1.36-0.55,2.57-1.36,3.64-2.36
		c1.45-1.37,2.65-2.95,3.67-4.65c1.16-1.95,2.27-3.93,3.33-5.94c1.26-2.37,2.6-4.68,4.26-6.8c1.5-1.9,3.27-3.48,5.45-4.56
		c0.67-0.33,1.4-0.56,2.12-0.76c0.34-0.1,0.71,0,0.76,0.6c-0.15,0.07-0.33,0.21-0.53,0.25c-1.46,0.32-2.51,1.22-3.26,2.45
		c-0.87,1.44-1.69,2.92-2.46,4.42c-0.61,1.19-1.13,2.43-1.67,3.65c-1.04,2.34-2.14,4.65-3.55,6.8c-2.83,4.33-6.9,6.82-11.84,8.01
		c-1.43,0.34-2.9,0.3-4.34,0.06c-0.73-0.12-1.48-0.39-2.11-0.77c-1.64-0.98-2.06-3.17-0.99-4.74
		C389.6,615.51,389.73,615.43,390.85,615.04z"/>
	<path d="M498.03,596.16c-0.2,1.64-1.11,2.64-2.31,3.45c-1.15,0.77-1.33,0.85-2.34,0.77c-0.08-0.31,0.13-0.36,0.35-0.44
		c0.65-0.23,1.33-0.43,1.67-1.23c-0.37-0.61-0.74-1.24-1.07-1.8c0.43-1.54,0.99-2.17,1.98-2.22
		C497.31,594.65,497.77,595.26,498.03,596.16z"/>
	<path d="M500.03,596.63c0.12-0.8,0.55-1.39,1.27-1.75c0.56-0.28,1.12-0.29,1.65,0.09c0.57,0.41,0.83,0.97,0.68,1.66
		c-0.09,0.39-0.22,0.79-0.44,1.13c-0.86,1.38-2.13,2.26-3.67,2.75c-0.16,0.05-0.37-0.09-0.76-0.2c0.85-0.61,1.9-0.57,2.25-1.58
		C500.93,597.95,499.9,597.55,500.03,596.63z"/>
	<path d="M97.87,594.73c-0.85,0.77-2.07,0.67-2.23,1.83c0.37,0.58,0.73,1.16,1.05,1.66c-0.17,1.31-0.83,2-1.99,2.24
		c-0.93-0.03-1.49-0.51-1.72-1.48c0.09-1.23,0.71-2.24,1.73-3C95.56,595.34,96.35,594.49,97.87,594.73z"/>
	<path d="M92.21,594.76c-0.81,0.7-1.88,0.66-2.26,1.72c0.35,0.56,0.74,1.18,1.08,1.73c-0.13,1.33-0.81,1.99-1.96,2.25
		c-0.7,0-1.23-0.3-1.55-0.92c-0.29-0.57-0.17-1.12,0.08-1.67c0.77-1.69,2.11-2.7,3.87-3.19C91.61,594.62,91.8,594.7,92.21,594.76z"
		/>
	<path d="M353.56,601.88c-0.64-1.03-0.34-1.87,0.3-2.63c0.68-0.8,1.51-1.01,2.42-0.65c0.69,0.87,0.48,1.64-0.06,2.32
		C355.58,601.73,354.81,602.32,353.56,601.88z"/>
	<path d="M188.31,601.95c-0.19-0.34-0.37-0.68-0.53-0.95c0.12-1.03,0.57-1.75,1.34-2.25c0.57-0.37,1.19-0.43,1.86-0.08
		c0.57,0.74,0.45,1.51-0.07,2.21C190.29,601.71,189.51,602.27,188.31,601.95z"/>
	<path d="M251.1,430.2c-0.19,0.09-0.38,0.19-0.56,0.28c-0.02-0.05-0.03-0.1-0.05-0.15c0.22-0.03,0.44-0.06,0.65-0.09L251.1,430.2z"
		/>
	<path d="M248.04,431.06c-0.02,0.02-0.03,0.05-0.05,0.07c-0.03-0.04-0.06-0.07-0.08-0.11C247.95,431.04,248,431.05,248.04,431.06z"
		/>
	<polygon points="306.82,322.71 306.69,322.72 306.78,322.72 	"/>
	<path d="M467.33,303.22c-0.5,0.92-0.95,1.86-1.5,2.74c-2.32,3.72-4.98,7.16-8.37,10c-2.55,2.13-5.43,3.58-8.7,4.2
		c-0.79,0.15-1.6,0.18-2.41,0.26c-0.13-0.62,0.35-0.61,0.59-0.75c4.18-2.34,8.1-5.04,11.74-8.15c2.52-2.16,4.91-4.45,7.15-6.91
		c0.45-0.49,0.75-1.19,1.52-1.35L467.33,303.22z"/>
	<polygon points="467.34,303.25 467.37,303.15 467.33,303.22 	"/>
	<polygon points="478.96,263.58 478.85,263.6 478.92,263.6 	"/>
	<path d="M463.83,338.89c0.06-0.05,0.11-0.11,0.17-0.16c-0.01,0.04-0.02,0.11-0.04,0.12c-0.05,0.02-0.1,0-0.16,0L463.83,338.89z"/>
	<path d="M353.82,277.08c0.13,0.14,0.24,0.26,0.39,0.42C353.76,277.61,353.62,277.52,353.82,277.08z"/>
	<path d="M395.88,364.82c0.04,0,0.09-0.01,0.13-0.01c-0.03-0.01-0.06-0.02-0.09-0.03L395.88,364.82z"/>
	<path d="M398.04,364.74c-0.13-0.1-0.09-0.03-0.05,0.05L398.04,364.74z"/>
	<path d="M398.34,365.19c0.28-0.03,0.4,0.07,0.32,0.36l0.04-0.04c-0.11-0.12-0.22-0.24-0.33-0.36L398.34,365.19z"/>
	<path d="M397.99,364.79c0.12,0.13,0.24,0.27,0.36,0.4l0.04-0.04c-0.12-0.14-0.23-0.27-0.35-0.41L397.99,364.79z"/>
	<path d="M385.12,398.68c-0.08-0.02-0.16-0.04-0.24-0.06c0.2-0.25,0.16,0.02,0.21,0.1L385.12,398.68z"/>
	<path d="M254.15,181.33c-0.01,0.08-0.02,0.15-0.02,0.18c0.01-0.01,0.04-0.07,0.07-0.13C254.2,181.38,254.15,181.33,254.15,181.33z"
		/>
</g>
</svg>
